<svg width="32" height="16" viewBox="0 0 32 16" fill="none" xmlns="http://www.w3.org/2000/svg">
<rect x="3.23633" y="2.3418" width="6.5" height="3.42105" fill="#771FE8"/>
<rect x="9.73633" y="3.02539" width="1.36842" height="2.05263" fill="#771FE8"/>
<rect x="1.86816" y="3.70898" width="1.36842" height="1.02632" fill="#771FE8"/>
<rect x="1.18359" y="4.73633" width="11.9737" height="7.52632" fill="#771FE8"/>
<rect x="0.841797" y="12.2637" width="12.3158" height="0.684211" fill="black"/>
<rect x="13.1582" y="11.5781" width="0.684211" height="0.684211" fill="black"/>
<rect x="13.8418" y="10.5508" width="0.684211" height="1.02632" fill="black"/>
<rect x="14.5269" y="7.13281" width="0.684211" height="3.42105" fill="black"/>
<rect x="12.4731" y="6.10547" width="1.36842" height="0.684211" fill="black"/>
<rect x="12.4731" y="4.73438" width="0.684211" height="1.36842" fill="black"/>
<rect x="11.7896" y="4.05078" width="0.684211" height="0.684211" fill="black"/>
<rect x="11.1055" y="3.36719" width="0.684211" height="0.684211" fill="black"/>
<rect x="10.4209" y="2.68359" width="0.684211" height="0.684211" fill="black"/>
<rect x="3.23682" y="2.3418" width="7.18421" height="0.684211" fill="black"/>
<rect x="2.55225" y="3.02539" width="0.684211" height="0.684211" fill="black"/>
<rect x="1.86865" y="3.70898" width="0.684211" height="0.684211" fill="black"/>
<rect x="1.18408" y="4.39453" width="0.684211" height="1.71053" fill="black"/>
<rect x="0.5" y="6.10547" width="0.684211" height="6.15789" fill="black"/>
<rect x="11.1055" y="6.10547" width="3.76316" height="5.47368" fill="black"/>
<rect x="10.4214" y="6.78906" width="3.76316" height="4.10526" fill="black"/>
<rect x="12.1318" y="6.78906" width="3.76316" height="4.10526" fill="black"/>
<rect x="11.4473" y="7.47461" width="1.36842" height="1.36842" fill="white"/>
<rect x="13.4995" y="7.47461" width="1.36842" height="1.36842" fill="white"/>
<rect x="12.1313" y="7.47461" width="0.684211" height="0.684211" fill="#771FE8"/>
<rect x="14.1836" y="7.47461" width="0.684211" height="0.684211" fill="#771FE8"/>
<rect x="13.8418" y="4.05273" width="0.684211" height="3.07895" fill="black"/>
<rect x="13.1577" y="3.36719" width="0.684211" height="0.684211" fill="black"/>
<rect x="12.4731" y="2.68359" width="0.684211" height="0.684211" fill="black"/>
<rect x="11.4473" y="2" width="1.02632" height="0.684211" fill="black"/>
<rect x="11.1045" y="4.05273" width="0.684211" height="3.07895" fill="black"/>
<rect x="10.4204" y="3.36719" width="0.684211" height="0.684211" fill="black"/>
<rect x="9.73633" y="2.68359" width="0.684211" height="0.684211" fill="black"/>
<rect x="8.71045" y="2" width="1.02632" height="0.684211" fill="black"/>
<rect x="2.21045" y="10.5527" width="1.02632" height="1.02632" fill="black"/>
<rect x="6.65771" y="9.52539" width="1.36842" height="1.71053" fill="black"/>
<rect x="8.02588" y="6.44727" width="1.71053" height="2.39474" fill="black"/>
<rect x="9.05225" y="10.5527" width="0.684211" height="0.684211" fill="black"/>
<rect x="2.89453" y="8.1582" width="1.71053" height="1.71053" fill="black"/>
<rect x="4.94727" y="6.44727" width="1.71053" height="1.71053" fill="black"/>
<rect x="2.89453" y="4.39258" width="2.05263" height="1.36842" fill="black"/>
<rect x="7.3418" y="4.39258" width="2.39474" height="1.36842" fill="black"/>
<rect x="5.63135" y="3.36719" width="1.02632" height="1.02632" fill="black"/>
<rect x="11.7891" y="9.86719" width="2.73684" height="0.684211" fill="white"/>
<rect x="11.4473" y="9.52539" width="0.684211" height="0.342105" fill="white"/>
<rect x="3.23633" y="12.9473" width="0.684211" height="0.684211" fill="black"/>
<rect x="2.55225" y="13.6328" width="0.684211" height="0.684211" fill="black"/>
<rect x="1.86816" y="14.3164" width="0.684211" height="0.684211" fill="black"/>
<rect x="4.60449" y="13.6328" width="0.684211" height="0.684211" fill="black"/>
<rect x="8.71045" y="12.9473" width="0.684211" height="0.684211" fill="black"/>
<rect x="8.02588" y="13.6328" width="0.684211" height="0.684211" fill="black"/>
<rect x="7.3418" y="14.3164" width="0.684211" height="0.684211" fill="black"/>
<rect x="5.97314" y="12.9473" width="0.684211" height="0.684211" fill="black"/>
<rect x="5.28906" y="13.6328" width="0.684211" height="0.684211" fill="black"/>
<rect x="11.4473" y="12.9473" width="0.684211" height="0.684211" fill="black"/>
<rect x="10.7627" y="13.6328" width="0.684211" height="0.684211" fill="black"/>
<rect x="10.0786" y="13.6328" width="0.684211" height="0.684211" fill="black"/>
<rect x="19.2363" y="1.3418" width="6.5" height="3.42105" fill="#771FE8"/>
<rect x="25.7363" y="2.02539" width="1.36842" height="2.05263" fill="#771FE8"/>
<rect x="17.8682" y="2.70898" width="1.36842" height="1.02632" fill="#771FE8"/>
<rect x="17.1836" y="3.73633" width="11.9737" height="7.52632" fill="#771FE8"/>
<rect x="16.8418" y="11.2637" width="12.3158" height="0.684211" fill="black"/>
<rect x="29.1582" y="10.5781" width="0.684211" height="0.684211" fill="black"/>
<rect x="29.8418" y="9.55078" width="0.684211" height="1.02632" fill="black"/>
<rect x="30.5269" y="6.13281" width="0.684211" height="3.42105" fill="black"/>
<rect x="28.4731" y="5.10547" width="1.36842" height="0.684211" fill="black"/>
<rect x="28.4731" y="3.73438" width="0.684211" height="1.36842" fill="black"/>
<rect x="27.7896" y="3.05078" width="0.684211" height="0.684211" fill="black"/>
<rect x="27.1055" y="2.36719" width="0.684211" height="0.684211" fill="black"/>
<rect x="26.4209" y="1.68359" width="0.684211" height="0.684211" fill="black"/>
<rect x="19.2368" y="1.3418" width="7.18421" height="0.684211" fill="black"/>
<rect x="18.5522" y="2.02539" width="0.684211" height="0.684211" fill="black"/>
<rect x="17.8687" y="2.70898" width="0.684211" height="0.684211" fill="black"/>
<rect x="17.1841" y="3.39453" width="0.684211" height="1.71053" fill="black"/>
<rect x="16.5" y="5.10547" width="0.684211" height="6.15789" fill="black"/>
<rect x="27.1055" y="5.10547" width="3.76316" height="5.47368" fill="black"/>
<rect x="26.4214" y="5.78906" width="3.76316" height="4.10526" fill="black"/>
<rect x="28.1318" y="5.78906" width="3.76316" height="4.10526" fill="black"/>
<rect x="27.4473" y="6.47461" width="1.36842" height="1.36842" fill="white"/>
<rect x="29.4995" y="6.47461" width="1.36842" height="1.36842" fill="white"/>
<rect x="28.1313" y="6.47461" width="0.684211" height="0.684211" fill="#771FE8"/>
<rect x="30.1836" y="6.47461" width="0.684211" height="0.684211" fill="#771FE8"/>
<rect x="29.8418" y="3.05273" width="0.684211" height="3.07895" fill="black"/>
<rect x="29.1577" y="2.36719" width="0.684211" height="0.684211" fill="black"/>
<rect x="28.4731" y="1.68359" width="0.684211" height="0.684211" fill="black"/>
<rect x="27.4473" y="1" width="1.02632" height="0.684211" fill="black"/>
<rect x="27.1045" y="3.05273" width="0.684211" height="3.07895" fill="black"/>
<rect x="26.4204" y="2.36719" width="0.684211" height="0.684211" fill="black"/>
<rect x="25.7363" y="1.68359" width="0.684211" height="0.684211" fill="black"/>
<rect x="24.7104" y="1" width="1.02632" height="0.684211" fill="black"/>
<rect x="18.2104" y="9.55273" width="1.02632" height="1.02632" fill="black"/>
<rect x="22.6577" y="8.52539" width="1.36842" height="1.71053" fill="black"/>
<rect x="24.0259" y="5.44727" width="1.71053" height="2.39474" fill="black"/>
<rect x="25.0522" y="9.55273" width="0.684211" height="0.684211" fill="black"/>
<rect x="18.8945" y="7.1582" width="1.71053" height="1.71053" fill="black"/>
<rect x="20.9473" y="5.44727" width="1.71053" height="1.71053" fill="black"/>
<rect x="18.8945" y="3.39258" width="2.05263" height="1.36842" fill="black"/>
<rect x="23.3418" y="3.39258" width="2.39474" height="1.36842" fill="black"/>
<rect x="21.6313" y="2.36719" width="1.02632" height="1.02632" fill="black"/>
<rect x="27.7891" y="8.86719" width="2.73684" height="0.684211" fill="white"/>
<rect x="27.4473" y="8.52539" width="0.684211" height="0.342105" fill="white"/>
<rect x="19.2363" y="11.9473" width="0.684211" height="0.684211" fill="black"/>
<rect x="18.5522" y="12.6328" width="0.684211" height="0.684211" fill="black"/>
<rect x="17.8682" y="13.3164" width="0.684211" height="0.684211" fill="black"/>
<rect x="20.6045" y="12.6328" width="0.684211" height="0.684211" fill="black"/>
<rect x="24.7104" y="11.9473" width="0.684211" height="0.684211" fill="black"/>
<rect x="24.0259" y="12.6328" width="0.684211" height="0.684211" fill="black"/>
<rect x="23.3418" y="13.3164" width="0.684211" height="0.684211" fill="black"/>
<rect x="21.9731" y="11.9473" width="0.684211" height="0.684211" fill="black"/>
<rect x="21.2891" y="12.6328" width="0.684211" height="0.684211" fill="black"/>
<rect x="27.4473" y="11.9473" width="0.684211" height="0.684211" fill="black"/>
<rect x="26.7627" y="12.6328" width="0.684211" height="0.684211" fill="black"/>
<rect x="26.0786" y="12.6328" width="0.684211" height="0.684211" fill="black"/>
</svg>
