<svg width="64" height="16" viewBox="0 0 64 16" fill="none" xmlns="http://www.w3.org/2000/svg">
<rect x="59" y="6" width="5" height="4" transform="rotate(-180 59 6)" fill="#00BB14"/>
<rect x="61" y="6" width="2" height="3" transform="rotate(-180 61 6)" fill="#00BB14"/>
<rect x="62" y="7" width="1" height="3" transform="rotate(-180 62 7)" fill="#00BB14"/>
<path d="M62.5 6V10.5H61.5M61.5 10.5V9.5V8.5V7.5H60.5M61.5 10.5V13M60.5 7.5V6.5H58.5M60.5 7.5H59.5H58.5V6.5M60.5 7.5V8.5M57.5 6.5H58.5M57.5 6.5H57M57.5 6.5V5.5H54M60.5 14V13.5M60.5 13.5V12.5M60.5 13.5H54.5M60.5 12.5H57.5H57M60.5 12.5V11.5M60.5 11.5H57M60.5 11.5V10.5M60.5 10.5H56M60.5 10.5V9.5M60.5 9.5V8.5M60.5 9.5H53.5M50 9.5H50.5M60.5 8.5H55.5M50 8.5H55.5M55.5 8.5V7.5H50M51 5.5H54M54 5.5V4.5M54 4.5H51M54 4.5V3.5H52M53.5 13.5H52.5V11.5M53.5 13.5V9.5M53.5 13.5H54.5M53.5 9.5H52.5M52.5 9.5H50.5M52.5 9.5V11.5M50.5 9.5V11M52.5 11.5H51.5V13M54.5 13.5V14.5H58.5H59" stroke="#00BB14"/>
<rect x="56" y="13" width="2" height="2" transform="rotate(-180 56 13)" fill="white"/>
<rect x="56" y="13" width="2" height="2" transform="rotate(-180 56 13)" fill="black"/>
<path d="M50 6.5H56.5V7.5H58" stroke="#C6C600"/>
<rect x="52" y="11" width="1" height="1" transform="rotate(-180 52 11)" fill="#C6C600"/>
<rect x="56" y="11" width="2" height="1" transform="rotate(-180 56 11)" fill="white"/>
<rect x="56" y="11" width="2" height="1" transform="rotate(-180 56 11)" fill="white"/>
<rect x="57" y="13" width="1" height="2" transform="rotate(-180 57 13)" fill="white"/>
<rect x="57" y="13" width="1" height="2" transform="rotate(-180 57 13)" fill="white"/>
<rect x="20" y="7.00195" width="5" height="1" transform="rotate(90 20 7.00195)" fill="#00BB14"/>
<rect x="21" y="5.00195" width="6" height="1" transform="rotate(90 21 5.00195)" fill="#00BB14"/>
<rect x="22" y="4.00195" width="6" height="1" transform="rotate(90 22 4.00195)" fill="#00BB14"/>
<rect x="23" y="4.00195" width="5" height="1" transform="rotate(90 23 4.00195)" fill="#00BB14"/>
<rect x="24" y="3.00195" width="5" height="1" transform="rotate(90 24 3.00195)" fill="#00BB14"/>
<rect x="25" y="3.00195" width="4" height="1" transform="rotate(90 25 3.00195)" fill="#00BB14"/>
<rect x="27" y="3.00195" width="4" height="1" transform="rotate(90 27 3.00195)" fill="#00BB14"/>
<rect x="28" y="3.00195" width="5" height="1" transform="rotate(90 28 3.00195)" fill="#00BB14"/>
<rect x="26" y="3.00195" width="3" height="1" transform="rotate(90 26 3.00195)" fill="#00BB14"/>
<rect x="29" y="4.00195" width="2" height="1" transform="rotate(90 29 4.00195)" fill="#00BB14"/>
<rect x="30" y="4.00195" width="1" height="1" transform="rotate(90 30 4.00195)" fill="#00BB14"/>
<rect x="32" y="7.00195" width="2" height="1" transform="rotate(90 32 7.00195)" fill="#00BB14"/>
<rect x="32" y="10.002" width="2" height="1" transform="rotate(90 32 10.002)" fill="#00BB14"/>
<rect x="31" y="8.00195" width="3" height="1" transform="rotate(90 31 8.00195)" fill="#00BB14"/>
<rect x="30" y="8.00195" width="2" height="1" transform="rotate(90 30 8.00195)" fill="#00BB14"/>
<rect x="29" y="8.00195" width="1" height="1" transform="rotate(90 29 8.00195)" fill="#00BB14"/>
<rect x="29" y="6.00195" width="2" height="1" transform="rotate(90 29 6.00195)" fill="white"/>
<rect x="31" y="5.00195" width="1" height="2" transform="rotate(90 31 5.00195)" fill="white"/>
<rect x="30" y="11.002" width="1" height="1" transform="rotate(90 30 11.002)" fill="white"/>
<rect x="27" y="8.00195" width="1" height="1" transform="rotate(90 27 8.00195)" fill="white"/>
<rect x="22" y="11.002" width="1" height="1" transform="rotate(90 22 11.002)" fill="white"/>
<rect x="31" y="6.00195" width="2" height="2" transform="rotate(90 31 6.00195)" fill="black"/>
<rect x="27" y="12.002" width="2" height="2" transform="rotate(90 27 12.002)" fill="#FF0000"/>
<rect x="26" y="11.002" width="2" height="2" transform="rotate(90 26 11.002)" fill="#FF0000"/>
<rect x="25" y="9.00195" width="3" height="2" transform="rotate(90 25 9.00195)" fill="#FF0000"/>
<rect x="26" y="8.00195" width="1" height="2" transform="rotate(90 26 8.00195)" fill="#FF0000"/>
<rect x="26" y="7.00195" width="1" height="1" transform="rotate(90 26 7.00195)" fill="#FF0000"/>
<rect x="31" y="11.002" width="1" height="1" transform="rotate(90 31 11.002)" fill="#C6C600"/>
<rect x="30" y="10.002" width="1" height="1" transform="rotate(90 30 10.002)" fill="#C6C600"/>
<rect x="29" y="9.00195" width="1" height="1" transform="rotate(90 29 9.00195)" fill="#C6C600"/>
<rect x="28" y="8.00195" width="1" height="1" transform="rotate(90 28 8.00195)" fill="#C6C600"/>
<rect x="27" y="7.00195" width="1" height="1" transform="rotate(90 27 7.00195)" fill="#C6C600"/>
<rect x="26" y="6.00195" width="1" height="1" transform="rotate(90 26 6.00195)" fill="#C6C600"/>
<rect x="25" y="7.00195" width="1" height="1" transform="rotate(90 25 7.00195)" fill="#C6C600"/>
<rect x="24" y="8.00195" width="1" height="1" transform="rotate(90 24 8.00195)" fill="#C6C600"/>
<rect x="23" y="9.00195" width="1" height="1" transform="rotate(90 23 9.00195)" fill="#C6C600"/>
<rect x="22" y="10.002" width="1" height="1" transform="rotate(90 22 10.002)" fill="#C6C600"/>
<rect x="21" y="11.002" width="1" height="1" transform="rotate(90 21 11.002)" fill="#C6C600"/>
<rect x="32" y="9.00195" width="1" height="1" transform="rotate(90 32 9.00195)" fill="#C6C600"/>
<rect x="47.5" y="6.50195" width="1" height="1" transform="rotate(90 47.5 6.50195)" fill="#00BB14"/>
<rect x="47.5" y="8.50195" width="1" height="1" transform="rotate(90 47.5 8.50195)" fill="#00BB14"/>
<rect x="46.5" y="8.50195" width="3" height="3" transform="rotate(90 46.5 8.50195)" fill="#00BB14"/>
<rect x="47.5" y="9.50195" width="2" height="1" transform="rotate(90 47.5 9.50195)" fill="#00BB14"/>
<rect x="45.5" y="11.502" width="3" height="1" transform="rotate(90 45.5 11.502)" fill="#00BB14"/>
<rect x="47.5" y="7.50195" width="1" height="1" transform="rotate(90 47.5 7.50195)" fill="#00BB14"/>
<rect x="44.5" y="11.502" width="1" height="1" transform="rotate(90 44.5 11.502)" fill="#00BB14"/>
<rect x="46.5" y="12.502" width="1" height="1" transform="rotate(90 46.5 12.502)" fill="#00BB14"/>
<rect x="47.5" y="7.50195" width="1" height="1" transform="rotate(90 47.5 7.50195)" fill="#00BB14"/>
<rect x="43.5" y="8.50195" width="1" height="1" transform="rotate(90 43.5 8.50195)" fill="#00BB14"/>
<rect x="43.5" y="6.50195" width="1" height="1" transform="rotate(90 43.5 6.50195)" fill="#00BB14"/>
<rect x="43.5" y="7.50195" width="1" height="1" transform="rotate(90 43.5 7.50195)" fill="#00BB14"/>
<rect x="43.5" y="5.50195" width="1" height="1" transform="rotate(90 43.5 5.50195)" fill="#00BB14"/>
<rect x="44.5" y="5.50195" width="1" height="1" transform="rotate(90 44.5 5.50195)" fill="#00BB14"/>
<rect x="46.5" y="4.50195" width="1" height="11" transform="rotate(90 46.5 4.50195)" fill="#00BB14"/>
<rect x="45.5" y="3.50195" width="1" height="9" transform="rotate(90 45.5 3.50195)" fill="#00BB14"/>
<rect x="43.5" y="2.50195" width="1" height="5" transform="rotate(90 43.5 2.50195)" fill="#00BB14"/>
<rect x="42.5" y="5.50195" width="1" height="1" transform="rotate(90 42.5 5.50195)" fill="#00BB14"/>
<rect x="40.5" y="5.50195" width="1" height="5" transform="rotate(90 40.5 5.50195)" fill="#00BB14"/>
<rect x="39.5" y="6.50195" width="3" height="5" transform="rotate(90 39.5 6.50195)" fill="#00BB14"/>
<rect x="43.5" y="8.50195" width="1" height="1" transform="rotate(90 43.5 8.50195)" fill="#00BB14"/>
<rect x="38.5" y="9.50195" width="1" height="4" transform="rotate(90 38.5 9.50195)" fill="#00BB14"/>
<rect x="38.5" y="10.502" width="1" height="4" transform="rotate(90 38.5 10.502)" fill="#00BB14"/>
<rect x="37.5" y="11.502" width="2" height="2" transform="rotate(90 37.5 11.502)" fill="#00BB14"/>
<rect x="38.5" y="11.502" width="1" height="1" transform="rotate(90 38.5 11.502)" fill="#00BB14"/>
<rect x="37.5" y="13.502" width="1" height="1" transform="rotate(90 37.5 13.502)" fill="#00BB14"/>
<rect x="38.5" y="12.502" width="2" height="1" transform="rotate(90 38.5 12.502)" fill="#C6C600"/>
<rect x="41.5" y="5.50195" width="1" height="1" transform="rotate(90 41.5 5.50195)" fill="#C6C600"/>
<rect x="42.5" y="6.50195" width="3" height="1" transform="rotate(90 42.5 6.50195)" fill="#C6C600"/>
<rect x="43.5" y="9.50195" width="3" height="1" transform="rotate(90 43.5 9.50195)" fill="#C6C600"/>
<rect x="44.5" y="12.502" width="2" height="1" transform="rotate(90 44.5 12.502)" fill="#C6C600"/>
<rect x="46.5" y="11.502" width="1" height="1" transform="rotate(90 46.5 11.502)" fill="#C6C600"/>
<rect x="41.5" y="11.502" width="3" height="1" transform="rotate(90 41.5 11.502)" fill="#FF0000"/>
<rect x="40.5" y="9.50195" width="4" height="1" transform="rotate(90 40.5 9.50195)" fill="#FF0000"/>
<rect x="41.5" y="6.50195" width="4" height="1" transform="rotate(90 41.5 6.50195)" fill="#FF0000"/>
<rect x="42.5" y="9.50195" width="1" height="1" transform="rotate(90 42.5 9.50195)" fill="white"/>
<rect x="43.5" y="12.502" width="1" height="1" transform="rotate(90 43.5 12.502)" fill="white"/>
<rect x="39.5" y="13.502" width="1" height="1" transform="rotate(90 39.5 13.502)" fill="white"/>
<rect x="44.5" y="6.50195" width="2" height="1" transform="rotate(90 44.5 6.50195)" fill="white"/>
<rect x="46.5" y="5.50195" width="1" height="2" transform="rotate(90 46.5 5.50195)" fill="white"/>
<rect x="46.5" y="6.50195" width="2" height="2" transform="rotate(90 46.5 6.50195)" fill="black"/>
<rect x="39.5" y="9.50195" width="3" height="1" transform="rotate(90 39.5 9.50195)" fill="#C6C600"/>
<rect x="40.5" y="6.50195" width="3" height="1" transform="rotate(90 40.5 6.50195)" fill="#C6C600"/>
<rect x="15.5" y="6.50195" width="1" height="1" transform="rotate(90 15.5 6.50195)" fill="#00BB14"/>
<rect x="15.5" y="8.50195" width="1" height="1" transform="rotate(90 15.5 8.50195)" fill="#00BB14"/>
<rect x="14.5" y="8.50195" width="3" height="3" transform="rotate(90 14.5 8.50195)" fill="#00BB14"/>
<rect x="15.5" y="9.50195" width="2" height="1" transform="rotate(90 15.5 9.50195)" fill="#00BB14"/>
<rect x="13.5" y="11.502" width="3" height="1" transform="rotate(90 13.5 11.502)" fill="#00BB14"/>
<rect x="15.5" y="7.50195" width="1" height="1" transform="rotate(90 15.5 7.50195)" fill="#00BB14"/>
<rect x="12.5" y="11.502" width="1" height="1" transform="rotate(90 12.5 11.502)" fill="#00BB14"/>
<rect x="14.5" y="12.502" width="1" height="1" transform="rotate(90 14.5 12.502)" fill="#00BB14"/>
<rect x="15.5" y="7.50195" width="1" height="1" transform="rotate(90 15.5 7.50195)" fill="#00BB14"/>
<rect x="11.5" y="8.50195" width="1" height="1" transform="rotate(90 11.5 8.50195)" fill="#00BB14"/>
<rect x="11.5" y="6.50195" width="1" height="1" transform="rotate(90 11.5 6.50195)" fill="#00BB14"/>
<rect x="11.5" y="7.50195" width="1" height="1" transform="rotate(90 11.5 7.50195)" fill="#00BB14"/>
<rect x="11.5" y="5.50195" width="1" height="1" transform="rotate(90 11.5 5.50195)" fill="#00BB14"/>
<rect x="12.5" y="5.50195" width="1" height="1" transform="rotate(90 12.5 5.50195)" fill="#00BB14"/>
<rect x="14.5" y="4.50195" width="1" height="11" transform="rotate(90 14.5 4.50195)" fill="#00BB14"/>
<rect x="13.5" y="3.50195" width="1" height="9" transform="rotate(90 13.5 3.50195)" fill="#00BB14"/>
<rect x="11.5" y="2.50195" width="1" height="5" transform="rotate(90 11.5 2.50195)" fill="#00BB14"/>
<rect x="10.5" y="5.50195" width="1" height="1" transform="rotate(90 10.5 5.50195)" fill="#00BB14"/>
<rect x="8.5" y="5.50195" width="1" height="5" transform="rotate(90 8.5 5.50195)" fill="#00BB14"/>
<rect x="7.5" y="6.50195" width="3" height="5" transform="rotate(90 7.5 6.50195)" fill="#00BB14"/>
<rect x="11.5" y="8.50195" width="1" height="1" transform="rotate(90 11.5 8.50195)" fill="#00BB14"/>
<rect x="6.5" y="9.50195" width="1" height="4" transform="rotate(90 6.5 9.50195)" fill="#00BB14"/>
<rect x="6.5" y="10.502" width="1" height="4" transform="rotate(90 6.5 10.502)" fill="#00BB14"/>
<rect x="5.5" y="11.502" width="2" height="2" transform="rotate(90 5.5 11.502)" fill="#00BB14"/>
<rect x="6.5" y="11.502" width="1" height="1" transform="rotate(90 6.5 11.502)" fill="#00BB14"/>
<rect x="5.5" y="13.502" width="1" height="1" transform="rotate(90 5.5 13.502)" fill="#00BB14"/>
<rect x="6.5" y="12.502" width="2" height="1" transform="rotate(90 6.5 12.502)" fill="#C6C600"/>
<rect x="9.5" y="5.50195" width="1" height="1" transform="rotate(90 9.5 5.50195)" fill="#C6C600"/>
<rect x="10.5" y="6.50195" width="3" height="1" transform="rotate(90 10.5 6.50195)" fill="#C6C600"/>
<rect x="11.5" y="9.50195" width="3" height="1" transform="rotate(90 11.5 9.50195)" fill="#C6C600"/>
<rect x="12.5" y="12.502" width="2" height="1" transform="rotate(90 12.5 12.502)" fill="#C6C600"/>
<rect x="14.5" y="11.502" width="1" height="1" transform="rotate(90 14.5 11.502)" fill="#C6C600"/>
<rect x="9.5" y="11.502" width="3" height="1" transform="rotate(90 9.5 11.502)" fill="#FF0000"/>
<rect x="8.5" y="9.50195" width="4" height="1" transform="rotate(90 8.5 9.50195)" fill="#FF0000"/>
<rect x="9.5" y="6.50195" width="4" height="1" transform="rotate(90 9.5 6.50195)" fill="#FF0000"/>
<rect x="10.5" y="9.50195" width="1" height="1" transform="rotate(90 10.5 9.50195)" fill="white"/>
<rect x="11.5" y="12.502" width="1" height="1" transform="rotate(90 11.5 12.502)" fill="white"/>
<rect x="7.5" y="13.502" width="1" height="1" transform="rotate(90 7.5 13.502)" fill="white"/>
<rect x="12.5" y="6.50195" width="2" height="1" transform="rotate(90 12.5 6.50195)" fill="white"/>
<rect x="14.5" y="5.50195" width="1" height="2" transform="rotate(90 14.5 5.50195)" fill="white"/>
<rect x="14.5" y="6.50195" width="2" height="2" transform="rotate(90 14.5 6.50195)" fill="black"/>
<rect x="7.5" y="9.50195" width="3" height="1" transform="rotate(90 7.5 9.50195)" fill="#C6C600"/>
<rect x="8.5" y="6.50195" width="3" height="1" transform="rotate(90 8.5 6.50195)" fill="#C6C600"/>
<rect width="5" height="13" transform="matrix(-4.37114e-08 -1 -1 4.37114e-08 63 11)" fill="#00BB14"/>
<rect width="2" height="11" transform="matrix(-4.37114e-08 -1 -1 4.37114e-08 62 6)" fill="#00BB14"/>
<rect width="1" height="11" transform="matrix(-4.37114e-08 -1 -1 4.37114e-08 62 12)" fill="#00BB14"/>
<rect width="1" height="11" transform="matrix(-4.37114e-08 -1 -1 4.37114e-08 62 13)" fill="#00BB14"/>
<rect width="1" height="9" transform="matrix(-4.37114e-08 -1 -1 4.37114e-08 61 4)" fill="#00BB14"/>
<rect width="1" height="9" transform="matrix(-4.37114e-08 -1 -1 4.37114e-08 61 14)" fill="#00BB14"/>
<rect width="1" height="5" transform="matrix(-4.37114e-08 -1 -1 4.37114e-08 59 3)" fill="#00BB14"/>
<rect width="1" height="5" transform="matrix(-4.37114e-08 -1 -1 4.37114e-08 59 15)" fill="#00BB14"/>
<rect width="7" height="1" transform="matrix(-4.37114e-08 -1 -1 4.37114e-08 55 15)" fill="#C6C600"/>
<rect width="2" height="1" transform="matrix(-4.37114e-08 -1 -1 4.37114e-08 56 9)" fill="#C6C600"/>
<rect width="1" height="1" transform="matrix(-4.37114e-08 -1 -1 4.37114e-08 59 14)" fill="#C6C600"/>
<rect width="2" height="2" transform="matrix(-4.37114e-08 -1 -1 4.37114e-08 61 11)" fill="black"/>
<rect width="1" height="2" transform="matrix(-4.37114e-08 -1 -1 4.37114e-08 61 9)" fill="white"/>
<rect width="1" height="2" transform="matrix(-4.37114e-08 -1 -1 4.37114e-08 61 9)" fill="white"/>
<rect width="2" height="1" transform="matrix(-4.37114e-08 -1 -1 4.37114e-08 59 11)" fill="white"/>
<rect width="2" height="1" transform="matrix(-4.37114e-08 -1 -1 4.37114e-08 59 11)" fill="white"/>
</svg>
