<svg width="64" height="16" viewBox="0 0 64 16" fill="none" xmlns="http://www.w3.org/2000/svg">
<rect x="5" y="10" width="5" height="4" fill="#00BB14"/>
<rect x="3" y="10" width="2" height="3" fill="#00BB14"/>
<rect x="2" y="9" width="1" height="3" fill="#00BB14"/>
<path d="M1.5 10V5.5H2.5M2.5 5.5V6.5V7.5V8.5H3.5M2.5 5.5V3M3.5 8.5V9.5H5.5M3.5 8.5H4.5H5.5V9.5M3.5 8.5V7.5M6.5 9.5H5.5M6.5 9.5H7M6.5 9.5V10.5H10M3.5 2V2.5M3.5 2.5V3.5M3.5 2.5H9.5M3.5 3.5H6.5H7M3.5 3.5V4.5M3.5 4.5H7M3.5 4.5V5.5M3.5 5.5H8M3.5 5.5V6.5M3.5 6.5V7.5M3.5 6.5H10.5M14 6.5H13.5M3.5 7.5H8.5M14 7.5H8.5M8.5 7.5V8.5H14M13 10.5H10M10 10.5V11.5M10 11.5H13M10 11.5V12.5H12M10.5 2.5H11.5V4.5M10.5 2.5V6.5M10.5 2.5H9.5M10.5 6.5H11.5M11.5 6.5H13.5M11.5 6.5V4.5M13.5 6.5V5M11.5 4.5H12.5V3M9.5 2.5V1.5H5.5H5" stroke="#00BB14"/>
<rect x="8" y="3" width="2" height="2" fill="white"/>
<rect x="8" y="3" width="2" height="2" fill="black"/>
<path d="M14 9.5H7.5V8.5H6" stroke="#C6C600"/>
<rect x="12" y="5" width="1" height="1" fill="#C6C600"/>
<rect x="8" y="5" width="2" height="1" fill="white"/>
<rect x="8" y="5" width="2" height="1" fill="white"/>
<rect x="7" y="3" width="1" height="2" fill="white"/>
<rect x="7" y="3" width="1" height="2" fill="white"/>
<rect x="37" y="13" width="5" height="1" fill="#00BB14"/>
<rect x="35" y="12" width="6" height="1" fill="#00BB14"/>
<rect x="34" y="11" width="6" height="1" fill="#00BB14"/>
<rect x="34" y="10" width="5" height="1" fill="#00BB14"/>
<rect x="33" y="9" width="5" height="1" fill="#00BB14"/>
<rect x="33" y="8" width="4" height="1" fill="#00BB14"/>
<rect x="33" y="6" width="4" height="1" fill="#00BB14"/>
<rect x="33" y="5" width="5" height="1" fill="#00BB14"/>
<rect x="33" y="7" width="3" height="1" fill="#00BB14"/>
<rect x="34" y="4" width="2" height="1" fill="#00BB14"/>
<rect x="34" y="3" width="1" height="1" fill="#00BB14"/>
<rect x="37" y="1" width="2" height="1" fill="#00BB14"/>
<rect x="40" y="1" width="2" height="1" fill="#00BB14"/>
<rect x="38" y="2" width="3" height="1" fill="#00BB14"/>
<rect x="38" y="3" width="2" height="1" fill="#00BB14"/>
<rect x="38" y="4" width="1" height="1" fill="#00BB14"/>
<rect x="36" y="4" width="2" height="1" fill="white"/>
<rect x="35" y="2" width="1" height="2" fill="white"/>
<rect x="41" y="3" width="1" height="1" fill="white"/>
<rect x="38" y="6" width="1" height="1" fill="white"/>
<rect x="41" y="11" width="1" height="1" fill="white"/>
<rect x="36" y="2" width="2" height="2" fill="black"/>
<rect x="42" y="6" width="2" height="2" fill="#FF0000"/>
<rect x="41" y="7" width="2" height="2" fill="#FF0000"/>
<rect x="39" y="8" width="3" height="2" fill="#FF0000"/>
<rect x="38" y="7" width="1" height="2" fill="#FF0000"/>
<rect x="37" y="7" width="1" height="1" fill="#FF0000"/>
<rect x="41" y="2" width="1" height="1" fill="#C6C600"/>
<rect x="40" y="3" width="1" height="1" fill="#C6C600"/>
<rect x="39" y="4" width="1" height="1" fill="#C6C600"/>
<rect x="38" y="5" width="1" height="1" fill="#C6C600"/>
<rect x="37" y="6" width="1" height="1" fill="#C6C600"/>
<rect x="36" y="7" width="1" height="1" fill="#C6C600"/>
<rect x="37" y="8" width="1" height="1" fill="#C6C600"/>
<rect x="38" y="9" width="1" height="1" fill="#C6C600"/>
<rect x="39" y="10" width="1" height="1" fill="#C6C600"/>
<rect x="40" y="11" width="1" height="1" fill="#C6C600"/>
<rect x="41" y="12" width="1" height="1" fill="#C6C600"/>
<rect x="39" y="1" width="1" height="1" fill="#C6C600"/>
<rect x="21" y="1" width="1" height="1" fill="#00BB14"/>
<rect x="23" y="1" width="1" height="1" fill="#00BB14"/>
<rect x="23" y="2" width="3" height="3" fill="#00BB14"/>
<rect x="24" y="1" width="2" height="1" fill="#00BB14"/>
<rect x="26" y="3" width="3" height="1" fill="#00BB14"/>
<rect x="22" y="1" width="1" height="1" fill="#00BB14"/>
<rect x="26" y="4" width="1" height="1" fill="#00BB14"/>
<rect x="27" y="2" width="1" height="1" fill="#00BB14"/>
<rect x="22" y="1" width="1" height="1" fill="#00BB14"/>
<rect x="23" y="5" width="1" height="1" fill="#00BB14"/>
<rect x="21" y="5" width="1" height="1" fill="#00BB14"/>
<rect x="22" y="5" width="1" height="1" fill="#00BB14"/>
<rect x="20" y="5" width="1" height="1" fill="#00BB14"/>
<rect x="20" y="4" width="1" height="1" fill="#00BB14"/>
<rect x="19" y="2" width="1" height="11" fill="#00BB14"/>
<rect x="18" y="3" width="1" height="9" fill="#00BB14"/>
<rect x="17" y="5" width="1" height="5" fill="#00BB14"/>
<rect x="20" y="6" width="1" height="1" fill="#00BB14"/>
<rect x="20" y="8" width="1" height="5" fill="#00BB14"/>
<rect x="21" y="9" width="3" height="5" fill="#00BB14"/>
<rect x="23" y="5" width="1" height="1" fill="#00BB14"/>
<rect x="24" y="10" width="1" height="4" fill="#00BB14"/>
<rect x="25" y="10" width="1" height="4" fill="#00BB14"/>
<rect x="26" y="11" width="2" height="2" fill="#00BB14"/>
<rect x="26" y="10" width="1" height="1" fill="#00BB14"/>
<rect x="28" y="11" width="1" height="1" fill="#00BB14"/>
<rect x="27" y="10" width="2" height="1" fill="#C6C600"/>
<rect x="20" y="7" width="1" height="1" fill="#C6C600"/>
<rect x="21" y="6" width="3" height="1" fill="#C6C600"/>
<rect x="24" y="5" width="3" height="1" fill="#C6C600"/>
<rect x="27" y="4" width="2" height="1" fill="#C6C600"/>
<rect x="26" y="2" width="1" height="1" fill="#C6C600"/>
<rect x="26" y="7" width="3" height="1" fill="#FF0000"/>
<rect x="24" y="8" width="4" height="1" fill="#FF0000"/>
<rect x="21" y="7" width="4" height="1" fill="#FF0000"/>
<rect x="24" y="6" width="1" height="1" fill="white"/>
<rect x="27" y="5" width="1" height="1" fill="white"/>
<rect x="28" y="9" width="1" height="1" fill="white"/>
<rect x="21" y="4" width="2" height="1" fill="white"/>
<rect x="20" y="2" width="1" height="2" fill="white"/>
<rect x="21" y="2" width="2" height="2" fill="black"/>
<rect x="24" y="9" width="3" height="1" fill="#C6C600"/>
<rect x="21" y="8" width="3" height="1" fill="#C6C600"/>
<rect x="53" y="1" width="1" height="1" fill="#00BB14"/>
<rect x="55" y="1" width="1" height="1" fill="#00BB14"/>
<rect x="55" y="2" width="3" height="3" fill="#00BB14"/>
<rect x="56" y="1" width="2" height="1" fill="#00BB14"/>
<rect x="58" y="3" width="3" height="1" fill="#00BB14"/>
<rect x="54" y="1" width="1" height="1" fill="#00BB14"/>
<rect x="58" y="4" width="1" height="1" fill="#00BB14"/>
<rect x="59" y="2" width="1" height="1" fill="#00BB14"/>
<rect x="54" y="1" width="1" height="1" fill="#00BB14"/>
<rect x="55" y="5" width="1" height="1" fill="#00BB14"/>
<rect x="53" y="5" width="1" height="1" fill="#00BB14"/>
<rect x="54" y="5" width="1" height="1" fill="#00BB14"/>
<rect x="52" y="5" width="1" height="1" fill="#00BB14"/>
<rect x="52" y="4" width="1" height="1" fill="#00BB14"/>
<rect x="51" y="2" width="1" height="11" fill="#00BB14"/>
<rect x="50" y="3" width="1" height="9" fill="#00BB14"/>
<rect x="49" y="5" width="1" height="5" fill="#00BB14"/>
<rect x="52" y="6" width="1" height="1" fill="#00BB14"/>
<rect x="52" y="8" width="1" height="5" fill="#00BB14"/>
<rect x="53" y="9" width="3" height="5" fill="#00BB14"/>
<rect x="55" y="5" width="1" height="1" fill="#00BB14"/>
<rect x="56" y="10" width="1" height="4" fill="#00BB14"/>
<rect x="57" y="10" width="1" height="4" fill="#00BB14"/>
<rect x="58" y="11" width="2" height="2" fill="#00BB14"/>
<rect x="58" y="10" width="1" height="1" fill="#00BB14"/>
<rect x="60" y="11" width="1" height="1" fill="#00BB14"/>
<rect x="59" y="10" width="2" height="1" fill="#C6C600"/>
<rect x="52" y="7" width="1" height="1" fill="#C6C600"/>
<rect x="53" y="6" width="3" height="1" fill="#C6C600"/>
<rect x="56" y="5" width="3" height="1" fill="#C6C600"/>
<rect x="59" y="4" width="2" height="1" fill="#C6C600"/>
<rect x="58" y="2" width="1" height="1" fill="#C6C600"/>
<rect x="58" y="7" width="3" height="1" fill="#FF0000"/>
<rect x="56" y="8" width="4" height="1" fill="#FF0000"/>
<rect x="53" y="7" width="4" height="1" fill="#FF0000"/>
<rect x="56" y="6" width="1" height="1" fill="white"/>
<rect x="59" y="5" width="1" height="1" fill="white"/>
<rect x="60" y="9" width="1" height="1" fill="white"/>
<rect x="53" y="4" width="2" height="1" fill="white"/>
<rect x="52" y="2" width="1" height="2" fill="white"/>
<rect x="53" y="2" width="2" height="2" fill="black"/>
<rect x="56" y="9" width="3" height="1" fill="#C6C600"/>
<rect x="53" y="8" width="3" height="1" fill="#C6C600"/>
<rect width="5" height="13" transform="matrix(-1 0 0 1 10 1)" fill="#00BB14"/>
<rect width="2" height="11" transform="matrix(-1 0 0 1 5 2)" fill="#00BB14"/>
<rect width="1" height="11" transform="matrix(-1 0 0 1 11 2)" fill="#00BB14"/>
<rect width="1" height="11" transform="matrix(-1 0 0 1 12 2)" fill="#00BB14"/>
<rect width="1" height="9" transform="matrix(-1 0 0 1 3 3)" fill="#00BB14"/>
<rect width="1" height="9" transform="matrix(-1 0 0 1 13 3)" fill="#00BB14"/>
<rect width="1" height="5" transform="matrix(-1 0 0 1 2 5)" fill="#00BB14"/>
<rect width="1" height="5" transform="matrix(-1 0 0 1 14 5)" fill="#00BB14"/>
<rect width="7" height="1" transform="matrix(-1 0 0 1 14 9)" fill="#C6C600"/>
<rect width="2" height="1" transform="matrix(-1 0 0 1 8 8)" fill="#C6C600"/>
<rect width="1" height="1" transform="matrix(-1 0 0 1 13 5)" fill="#C6C600"/>
<rect width="2" height="2" transform="matrix(-1 0 0 1 10 3)" fill="black"/>
<rect width="1" height="2" transform="matrix(-1 0 0 1 8 3)" fill="white"/>
<rect width="1" height="2" transform="matrix(-1 0 0 1 8 3)" fill="white"/>
<rect width="2" height="1" transform="matrix(-1 0 0 1 10 5)" fill="white"/>
<rect width="2" height="1" transform="matrix(-1 0 0 1 10 5)" fill="white"/>
</svg>
