<svg width="64" height="16" viewBox="0 0 64 16" fill="none" xmlns="http://www.w3.org/2000/svg">
<rect width="5" height="4" transform="matrix(-1 0 0 1 59 10)" fill="#00BB14"/>
<rect width="2" height="3" transform="matrix(-1 0 0 1 61 10)" fill="#00BB14"/>
<rect width="1" height="3" transform="matrix(-1 0 0 1 62 9)" fill="#00BB14"/>
<path d="M62.5 10V5.5H61.5M61.5 5.5V6.5V7.5V8.5H60.5M61.5 5.5V3M60.5 8.5V9.5H58.5M60.5 8.5H59.5H58.5V9.5M60.5 8.5V7.5M57.5 9.5H58.5M57.5 9.5H57M57.5 9.5V10.5H54M60.5 2V2.5M60.5 2.5V3.5M60.5 2.5H54.5M60.5 3.5H57.5H57M60.5 3.5V4.5M60.5 4.5H57M60.5 4.5V5.5M60.5 5.5H56M60.5 5.5V6.5M60.5 6.5V7.5M60.5 6.5H53.5M50 6.5H50.5M60.5 7.5H55.5M50 7.5H55.5M55.5 7.5V8.5H50M51 10.5H54M54 10.5V11.5M54 11.5H51M54 11.5V12.5H52M53.5 2.5H52.5V4.5M53.5 2.5V6.5M53.5 2.5H54.5M53.5 6.5H52.5M52.5 6.5H50.5M52.5 6.5V4.5M50.5 6.5V5M52.5 4.5H51.5V3M54.5 2.5V1.5H58.5H59" stroke="#00BB14"/>
<rect width="2" height="2" transform="matrix(-1 0 0 1 56 3)" fill="white"/>
<rect width="2" height="2" transform="matrix(-1 0 0 1 56 3)" fill="black"/>
<path d="M50 9.5H56.5V8.5H58" stroke="#C6C600"/>
<rect width="1" height="1" transform="matrix(-1 0 0 1 52 5)" fill="#C6C600"/>
<rect width="2" height="1" transform="matrix(-1 0 0 1 56 5)" fill="white"/>
<rect width="2" height="1" transform="matrix(-1 0 0 1 56 5)" fill="white"/>
<rect width="1" height="2" transform="matrix(-1 0 0 1 57 3)" fill="white"/>
<rect width="1" height="2" transform="matrix(-1 0 0 1 57 3)" fill="white"/>
<rect width="5" height="1" transform="matrix(-1 0 0 1 27 13)" fill="#00BB14"/>
<rect width="6" height="1" transform="matrix(-1 0 0 1 29 12)" fill="#00BB14"/>
<rect width="6" height="1" transform="matrix(-1 0 0 1 30 11)" fill="#00BB14"/>
<rect width="5" height="1" transform="matrix(-1 0 0 1 30 10)" fill="#00BB14"/>
<rect width="5" height="1" transform="matrix(-1 0 0 1 31 9)" fill="#00BB14"/>
<rect width="4" height="1" transform="matrix(-1 0 0 1 31 8)" fill="#00BB14"/>
<rect width="4" height="1" transform="matrix(-1 0 0 1 31 6)" fill="#00BB14"/>
<rect width="5" height="1" transform="matrix(-1 0 0 1 31 5)" fill="#00BB14"/>
<rect width="3" height="1" transform="matrix(-1 0 0 1 31 7)" fill="#00BB14"/>
<rect width="2" height="1" transform="matrix(-1 0 0 1 30 4)" fill="#00BB14"/>
<rect width="1" height="1" transform="matrix(-1 0 0 1 30 3)" fill="#00BB14"/>
<rect width="2" height="1" transform="matrix(-1 0 0 1 27 1)" fill="#00BB14"/>
<rect width="2" height="1" transform="matrix(-1 0 0 1 24 1)" fill="#00BB14"/>
<rect width="3" height="1" transform="matrix(-1 0 0 1 26 2)" fill="#00BB14"/>
<rect width="2" height="1" transform="matrix(-1 0 0 1 26 3)" fill="#00BB14"/>
<rect width="1" height="1" transform="matrix(-1 0 0 1 26 4)" fill="#00BB14"/>
<rect width="2" height="1" transform="matrix(-1 0 0 1 28 4)" fill="white"/>
<rect width="1" height="2" transform="matrix(-1 0 0 1 29 2)" fill="white"/>
<rect width="1" height="1" transform="matrix(-1 0 0 1 23 3)" fill="white"/>
<rect width="1" height="1" transform="matrix(-1 0 0 1 26 6)" fill="white"/>
<rect width="1" height="1" transform="matrix(-1 0 0 1 23 11)" fill="white"/>
<rect width="2" height="2" transform="matrix(-1 0 0 1 28 2)" fill="black"/>
<rect width="2" height="2" transform="matrix(-1 0 0 1 22 6)" fill="#FF0000"/>
<rect width="2" height="2" transform="matrix(-1 0 0 1 23 7)" fill="#FF0000"/>
<rect width="3" height="2" transform="matrix(-1 0 0 1 25 8)" fill="#FF0000"/>
<rect width="1" height="2" transform="matrix(-1 0 0 1 26 7)" fill="#FF0000"/>
<rect width="1" height="1" transform="matrix(-1 0 0 1 27 7)" fill="#FF0000"/>
<rect width="1" height="1" transform="matrix(-1 0 0 1 23 2)" fill="#C6C600"/>
<rect width="1" height="1" transform="matrix(-1 0 0 1 24 3)" fill="#C6C600"/>
<rect width="1" height="1" transform="matrix(-1 0 0 1 25 4)" fill="#C6C600"/>
<rect width="1" height="1" transform="matrix(-1 0 0 1 26 5)" fill="#C6C600"/>
<rect width="1" height="1" transform="matrix(-1 0 0 1 27 6)" fill="#C6C600"/>
<rect width="1" height="1" transform="matrix(-1 0 0 1 28 7)" fill="#C6C600"/>
<rect width="1" height="1" transform="matrix(-1 0 0 1 27 8)" fill="#C6C600"/>
<rect width="1" height="1" transform="matrix(-1 0 0 1 26 9)" fill="#C6C600"/>
<rect width="1" height="1" transform="matrix(-1 0 0 1 25 10)" fill="#C6C600"/>
<rect width="1" height="1" transform="matrix(-1 0 0 1 24 11)" fill="#C6C600"/>
<rect width="1" height="1" transform="matrix(-1 0 0 1 23 12)" fill="#C6C600"/>
<rect width="1" height="1" transform="matrix(-1 0 0 1 25 1)" fill="#C6C600"/>
<rect width="1" height="1" transform="matrix(-1 0 0 1 43 1)" fill="#00BB14"/>
<rect width="1" height="1" transform="matrix(-1 0 0 1 41 1)" fill="#00BB14"/>
<rect width="3" height="3" transform="matrix(-1 0 0 1 41 2)" fill="#00BB14"/>
<rect width="2" height="1" transform="matrix(-1 0 0 1 40 1)" fill="#00BB14"/>
<rect width="3" height="1" transform="matrix(-1 0 0 1 38 3)" fill="#00BB14"/>
<rect width="1" height="1" transform="matrix(-1 0 0 1 42 1)" fill="#00BB14"/>
<rect width="1" height="1" transform="matrix(-1 0 0 1 38 4)" fill="#00BB14"/>
<rect width="1" height="1" transform="matrix(-1 0 0 1 37 2)" fill="#00BB14"/>
<rect width="1" height="1" transform="matrix(-1 0 0 1 42 1)" fill="#00BB14"/>
<rect width="1" height="1" transform="matrix(-1 0 0 1 41 5)" fill="#00BB14"/>
<rect width="1" height="1" transform="matrix(-1 0 0 1 43 5)" fill="#00BB14"/>
<rect width="1" height="1" transform="matrix(-1 0 0 1 42 5)" fill="#00BB14"/>
<rect width="1" height="1" transform="matrix(-1 0 0 1 44 5)" fill="#00BB14"/>
<rect width="1" height="1" transform="matrix(-1 0 0 1 44 4)" fill="#00BB14"/>
<rect width="1" height="11" transform="matrix(-1 0 0 1 45 2)" fill="#00BB14"/>
<rect width="1" height="9" transform="matrix(-1 0 0 1 46 3)" fill="#00BB14"/>
<rect width="1" height="5" transform="matrix(-1 0 0 1 47 5)" fill="#00BB14"/>
<rect width="1" height="1" transform="matrix(-1 0 0 1 44 6)" fill="#00BB14"/>
<rect width="1" height="5" transform="matrix(-1 0 0 1 44 8)" fill="#00BB14"/>
<rect width="3" height="5" transform="matrix(-1 0 0 1 43 9)" fill="#00BB14"/>
<rect width="1" height="1" transform="matrix(-1 0 0 1 41 5)" fill="#00BB14"/>
<rect width="1" height="4" transform="matrix(-1 0 0 1 40 10)" fill="#00BB14"/>
<rect width="1" height="4" transform="matrix(-1 0 0 1 39 10)" fill="#00BB14"/>
<rect width="2" height="2" transform="matrix(-1 0 0 1 38 11)" fill="#00BB14"/>
<rect width="1" height="1" transform="matrix(-1 0 0 1 38 10)" fill="#00BB14"/>
<rect width="1" height="1" transform="matrix(-1 0 0 1 36 11)" fill="#00BB14"/>
<rect width="2" height="1" transform="matrix(-1 0 0 1 37 10)" fill="#C6C600"/>
<rect width="1" height="1" transform="matrix(-1 0 0 1 44 7)" fill="#C6C600"/>
<rect width="3" height="1" transform="matrix(-1 0 0 1 43 6)" fill="#C6C600"/>
<rect width="3" height="1" transform="matrix(-1 0 0 1 40 5)" fill="#C6C600"/>
<rect width="2" height="1" transform="matrix(-1 0 0 1 37 4)" fill="#C6C600"/>
<rect width="1" height="1" transform="matrix(-1 0 0 1 38 2)" fill="#C6C600"/>
<rect width="3" height="1" transform="matrix(-1 0 0 1 38 7)" fill="#FF0000"/>
<rect width="4" height="1" transform="matrix(-1 0 0 1 40 8)" fill="#FF0000"/>
<rect width="4" height="1" transform="matrix(-1 0 0 1 43 7)" fill="#FF0000"/>
<rect width="1" height="1" transform="matrix(-1 0 0 1 40 6)" fill="white"/>
<rect width="1" height="1" transform="matrix(-1 0 0 1 37 5)" fill="white"/>
<rect width="1" height="1" transform="matrix(-1 0 0 1 36 9)" fill="white"/>
<rect width="2" height="1" transform="matrix(-1 0 0 1 43 4)" fill="white"/>
<rect width="1" height="2" transform="matrix(-1 0 0 1 44 2)" fill="white"/>
<rect width="2" height="2" transform="matrix(-1 0 0 1 43 2)" fill="black"/>
<rect width="3" height="1" transform="matrix(-1 0 0 1 40 9)" fill="#C6C600"/>
<rect width="3" height="1" transform="matrix(-1 0 0 1 43 8)" fill="#C6C600"/>
<rect width="1" height="1" transform="matrix(-1 0 0 1 11 1)" fill="#00BB14"/>
<rect width="1" height="1" transform="matrix(-1 0 0 1 9 1)" fill="#00BB14"/>
<rect width="3" height="3" transform="matrix(-1 0 0 1 9 2)" fill="#00BB14"/>
<rect width="2" height="1" transform="matrix(-1 0 0 1 8 1)" fill="#00BB14"/>
<rect width="3" height="1" transform="matrix(-1 0 0 1 6 3)" fill="#00BB14"/>
<rect width="1" height="1" transform="matrix(-1 0 0 1 10 1)" fill="#00BB14"/>
<rect width="1" height="1" transform="matrix(-1 0 0 1 6 4)" fill="#00BB14"/>
<rect width="1" height="1" transform="matrix(-1 0 0 1 5 2)" fill="#00BB14"/>
<rect width="1" height="1" transform="matrix(-1 0 0 1 10 1)" fill="#00BB14"/>
<rect width="1" height="1" transform="matrix(-1 0 0 1 9 5)" fill="#00BB14"/>
<rect width="1" height="1" transform="matrix(-1 0 0 1 11 5)" fill="#00BB14"/>
<rect width="1" height="1" transform="matrix(-1 0 0 1 10 5)" fill="#00BB14"/>
<rect width="1" height="1" transform="matrix(-1 0 0 1 12 5)" fill="#00BB14"/>
<rect width="1" height="1" transform="matrix(-1 0 0 1 12 4)" fill="#00BB14"/>
<rect width="1" height="11" transform="matrix(-1 0 0 1 13 2)" fill="#00BB14"/>
<rect width="1" height="9" transform="matrix(-1 0 0 1 14 3)" fill="#00BB14"/>
<rect width="1" height="5" transform="matrix(-1 0 0 1 15 5)" fill="#00BB14"/>
<rect width="1" height="1" transform="matrix(-1 0 0 1 12 6)" fill="#00BB14"/>
<rect width="1" height="5" transform="matrix(-1 0 0 1 12 8)" fill="#00BB14"/>
<rect width="3" height="5" transform="matrix(-1 0 0 1 11 9)" fill="#00BB14"/>
<rect width="1" height="1" transform="matrix(-1 0 0 1 9 5)" fill="#00BB14"/>
<rect width="1" height="4" transform="matrix(-1 0 0 1 8 10)" fill="#00BB14"/>
<rect width="1" height="4" transform="matrix(-1 0 0 1 7 10)" fill="#00BB14"/>
<rect width="2" height="2" transform="matrix(-1 0 0 1 6 11)" fill="#00BB14"/>
<rect width="1" height="1" transform="matrix(-1 0 0 1 6 10)" fill="#00BB14"/>
<rect width="1" height="1" transform="matrix(-1 0 0 1 4 11)" fill="#00BB14"/>
<rect width="2" height="1" transform="matrix(-1 0 0 1 5 10)" fill="#C6C600"/>
<rect width="1" height="1" transform="matrix(-1 0 0 1 12 7)" fill="#C6C600"/>
<rect width="3" height="1" transform="matrix(-1 0 0 1 11 6)" fill="#C6C600"/>
<rect width="3" height="1" transform="matrix(-1 0 0 1 8 5)" fill="#C6C600"/>
<rect width="2" height="1" transform="matrix(-1 0 0 1 5 4)" fill="#C6C600"/>
<rect width="1" height="1" transform="matrix(-1 0 0 1 6 2)" fill="#C6C600"/>
<rect width="3" height="1" transform="matrix(-1 0 0 1 6 7)" fill="#FF0000"/>
<rect width="4" height="1" transform="matrix(-1 0 0 1 8 8)" fill="#FF0000"/>
<rect width="4" height="1" transform="matrix(-1 0 0 1 11 7)" fill="#FF0000"/>
<rect width="1" height="1" transform="matrix(-1 0 0 1 8 6)" fill="white"/>
<rect width="1" height="1" transform="matrix(-1 0 0 1 5 5)" fill="white"/>
<rect width="1" height="1" transform="matrix(-1 0 0 1 4 9)" fill="white"/>
<rect width="2" height="1" transform="matrix(-1 0 0 1 11 4)" fill="white"/>
<rect width="1" height="2" transform="matrix(-1 0 0 1 12 2)" fill="white"/>
<rect width="2" height="2" transform="matrix(-1 0 0 1 11 2)" fill="black"/>
<rect width="3" height="1" transform="matrix(-1 0 0 1 8 9)" fill="#C6C600"/>
<rect width="3" height="1" transform="matrix(-1 0 0 1 11 8)" fill="#C6C600"/>
<rect x="54" y="1" width="5" height="13" fill="#00BB14"/>
<rect x="59" y="2" width="2" height="11" fill="#00BB14"/>
<rect x="53" y="2" width="1" height="11" fill="#00BB14"/>
<rect x="52" y="2" width="1" height="11" fill="#00BB14"/>
<rect x="61" y="3" width="1" height="9" fill="#00BB14"/>
<rect x="51" y="3" width="1" height="9" fill="#00BB14"/>
<rect x="62" y="5" width="1" height="5" fill="#00BB14"/>
<rect x="50" y="5" width="1" height="5" fill="#00BB14"/>
<rect x="50" y="9" width="7" height="1" fill="#C6C600"/>
<rect x="56" y="8" width="2" height="1" fill="#C6C600"/>
<rect x="51" y="5" width="1" height="1" fill="#C6C600"/>
<rect x="54" y="3" width="2" height="2" fill="black"/>
<rect x="56" y="3" width="1" height="2" fill="white"/>
<rect x="56" y="3" width="1" height="2" fill="white"/>
<rect x="54" y="5" width="2" height="1" fill="white"/>
<rect x="54" y="5" width="2" height="1" fill="white"/>
</svg>
