<svg width="192" height="16" viewBox="0 0 192 16" fill="none" xmlns="http://www.w3.org/2000/svg">
<rect x="170" y="9" width="1" height="1" fill="#00BB14"/>
<rect x="168" y="7" width="1" height="1" fill="#00BB14"/>
<rect x="169" y="6" width="1" height="1" fill="#C6C600"/>
<rect x="166" y="7" width="1" height="1" fill="#00BB14"/>
<rect x="165" y="6" width="1" height="1" fill="#C6C600"/>
<rect x="171" y="8" width="1" height="1" fill="#C6C600"/>
<rect x="172" y="11" width="1" height="1" fill="#00BB14"/>
<rect x="170" y="9" width="1" height="1" fill="#00BB14"/>
<rect x="171" y="11" width="1" height="1" fill="#C6C600"/>
<rect x="170" y="13" width="1" height="1" fill="#00BB14"/>
<rect x="171" y="14" width="1" height="1" fill="#00BB14"/>
<rect x="168" y="14" width="1" height="1" fill="#C6C600"/>
<rect x="169" y="15" width="1" height="1" fill="#00BB14"/>
<rect x="165" y="15" width="1" height="1" fill="#00BB14"/>
<rect x="166" y="14" width="1" height="1" fill="#00BB14"/>
<rect x="164" y="12" width="1" height="1" fill="#00BB14"/>
<rect x="163" y="13" width="1" height="1" fill="#C6C600"/>
<rect x="163" y="10" width="1" height="1" fill="#00BB14"/>
<rect x="162" y="10" width="1" height="1" fill="#00BB14"/>
<rect x="164" y="8" width="1" height="1" fill="#C6C600"/>
<rect x="163" y="7" width="1" height="1" fill="#00BB14"/>
<rect x="151" y="8" width="1" height="6" fill="#00BB14"/>
<rect x="135" y="8" width="1" height="6" fill="#00BB14"/>
<rect x="136" y="10" width="1" height="5" fill="#00BB14"/>
<rect x="134" y="10" width="1" height="5" fill="#00BB14"/>
<rect x="133" y="13" width="1" height="1" fill="#00BB14"/>
<rect x="137" y="13" width="1" height="1" fill="#00BB14"/>
<rect x="117" y="10" width="2" height="5" fill="#00BB14"/>
<rect x="116" y="12" width="1" height="3" fill="#00BB14"/>
<rect x="119" y="8" width="1" height="6" fill="#00BB14"/>
<rect x="118" y="9" width="1" height="1" fill="#00BB14"/>
<rect x="120" y="10" width="2" height="5" fill="#00BB14"/>
<rect x="122" y="12" width="1" height="3" fill="#00BB14"/>
<rect x="123" y="13" width="1" height="1" fill="#00BB14"/>
<rect x="123" y="13" width="1" height="1" fill="#00BB14"/>
<rect x="123" y="13" width="1" height="1" fill="#00BB14"/>
<rect x="115" y="13" width="1" height="1" fill="#00BB14"/>
<rect x="120" y="9" width="1" height="1" fill="#00BB14"/>
<rect x="103" y="8" width="1" height="5" fill="#00BB14"/>
<rect x="104" y="9" width="1" height="5" fill="#00BB14"/>
<rect x="105" y="10" width="1" height="5" fill="#00BB14"/>
<rect x="106" y="10" width="1" height="5" fill="#00BB14"/>
<rect x="107" y="11" width="1" height="4" fill="#00BB14"/>
<rect x="108" y="12" width="1" height="3" fill="#00BB14"/>
<rect x="109" y="12" width="1" height="2" fill="#00BB14"/>
<rect width="1" height="5" transform="matrix(-1 0 0 1 103 9)" fill="#00BB14"/>
<rect width="1" height="5" transform="matrix(-1 0 0 1 102 10)" fill="#00BB14"/>
<rect width="1" height="5" transform="matrix(-1 0 0 1 101 10)" fill="#00BB14"/>
<rect width="1" height="4" transform="matrix(-1 0 0 1 100 11)" fill="#00BB14"/>
<rect width="1" height="3" transform="matrix(-1 0 0 1 99 12)" fill="#00BB14"/>
<rect width="1" height="2" transform="matrix(-1 0 0 1 98 12)" fill="#00BB14"/>
<rect x="87" y="8" width="1" height="4" fill="#00BB14"/>
<rect x="88" y="8" width="1" height="5" fill="#00BB14"/>
<rect x="89" y="9" width="1" height="5" fill="#00BB14"/>
<rect x="90" y="9" width="1" height="5" fill="#00BB14"/>
<rect x="91" y="10" width="1" height="4" fill="#00BB14"/>
<rect x="92" y="10" width="2" height="3" fill="#00BB14"/>
<rect x="94" y="11" width="1" height="1" fill="#00BB14"/>
<rect width="1" height="5" transform="matrix(-1 0 0 1 87 8)" fill="#00BB14"/>
<rect width="1" height="5" transform="matrix(-1 0 0 1 86 9)" fill="#00BB14"/>
<rect width="1" height="5" transform="matrix(-1 0 0 1 85 9)" fill="#00BB14"/>
<rect width="1" height="4" transform="matrix(-1 0 0 1 84 10)" fill="#00BB14"/>
<rect width="2" height="3" transform="matrix(-1 0 0 1 83 10)" fill="#00BB14"/>
<rect width="1" height="1" transform="matrix(-1 0 0 1 81 11)" fill="#00BB14"/>
<rect x="68" y="8" width="7" height="4" fill="#00BB14"/>
<rect x="67" y="9" width="4" height="4" fill="#00BB14"/>
<rect x="65" y="9" width="2" height="3" fill="#00BB14"/>
<rect x="64" y="9" width="1" height="2" fill="#00BB14"/>
<rect width="7" height="4" transform="matrix(-1 0 0 1 75 8)" fill="#00BB14"/>
<rect width="4" height="4" transform="matrix(-1 0 0 1 76 9)" fill="#00BB14"/>
<rect width="2" height="3" transform="matrix(-1 0 0 1 78 9)" fill="#00BB14"/>
<rect width="1" height="2" transform="matrix(-1 0 0 1 79 9)" fill="#00BB14"/>
<rect x="51" y="8" width="4" height="4" fill="#00BB14"/>
<rect x="49" y="7" width="3" height="4" fill="#00BB14"/>
<rect x="48" y="7" width="1" height="3" fill="#00BB14"/>
<rect width="4" height="4" transform="matrix(-1 0 0 1 60 8)" fill="#00BB14"/>
<rect width="3" height="4" transform="matrix(-1 0 0 1 62 7)" fill="#00BB14"/>
<rect width="1" height="3" transform="matrix(-1 0 0 1 63 7)" fill="#00BB14"/>
<rect x="55" y="8" width="1" height="3" fill="#00BB14"/>
<rect x="40" y="8" width="3" height="4" fill="#00BB14"/>
<rect x="41" y="7" width="4" height="4" fill="#00BB14"/>
<rect x="44" y="6" width="2" height="4" fill="#00BB14"/>
<rect x="46" y="6" width="1" height="3" fill="#00BB14"/>
<rect width="3" height="4" transform="matrix(-1 0 0 1 39 8)" fill="#00BB14"/>
<rect width="4" height="4" transform="matrix(-1 0 0 1 38 7)" fill="#00BB14"/>
<rect width="2" height="4" transform="matrix(-1 0 0 1 35 6)" fill="#00BB14"/>
<rect width="1" height="3" transform="matrix(-1 0 0 1 33 6)" fill="#00BB14"/>
<rect x="39" y="8" width="1" height="3" fill="#00BB14"/>
<rect x="20" y="6" width="1" height="1" fill="#00BB14"/>
<rect x="20" y="7" width="3" height="5" fill="#00BB14"/>
<rect x="18" y="5" width="2" height="6" fill="#00BB14"/>
<rect x="17" y="4" width="1" height="6" fill="#00BB14"/>
<rect x="16" y="5" width="1" height="3" fill="#00BB14"/>
<rect x="20" y="7" width="3" height="5" fill="#00BB14"/>
<rect x="18" y="5" width="2" height="6" fill="#00BB14"/>
<rect x="17" y="4" width="1" height="6" fill="#00BB14"/>
<rect x="16" y="5" width="1" height="3" fill="#00BB14"/>
<rect width="3" height="5" transform="matrix(-1 0 0 1 27 7)" fill="#00BB14"/>
<rect width="2" height="6" transform="matrix(-1 0 0 1 29 5)" fill="#00BB14"/>
<rect width="1" height="6" transform="matrix(-1 0 0 1 30 4)" fill="#00BB14"/>
<rect width="1" height="3" transform="matrix(-1 0 0 1 31 5)" fill="#00BB14"/>
<rect x="26" y="6" width="1" height="1" fill="#00BB14"/>
<rect x="23" y="8" width="1" height="3" fill="#00BB14"/>
<rect x="1" y="3" width="2" height="5" fill="#00BB14"/>
<rect x="2" y="4" width="2" height="6" fill="#00BB14"/>
<rect x="3" y="5" width="1" height="6" fill="#00BB14"/>
<rect x="4" y="5" width="1" height="6" fill="#00BB14"/>
<rect x="5" y="6" width="1" height="6" fill="#00BB14"/>
<rect x="6" y="7" width="1" height="5" fill="#00BB14"/>
<rect width="2" height="5" transform="matrix(-1 0 0 1 14 3)" fill="#00BB14"/>
<rect width="2" height="6" transform="matrix(-1 0 0 1 13 4)" fill="#00BB14"/>
<rect width="1" height="6" transform="matrix(-1 0 0 1 12 5)" fill="#00BB14"/>
<rect width="1" height="6" transform="matrix(-1 0 0 1 11 5)" fill="#00BB14"/>
<rect width="1" height="6" transform="matrix(-1 0 0 1 10 6)" fill="#00BB14"/>
<rect width="1" height="5" transform="matrix(-1 0 0 1 9 7)" fill="#00BB14"/>
<rect x="7" y="8" width="1" height="4" fill="#00BB14"/>
<rect x="151" y="11" width="1" height="2" fill="#C6C600"/>
<rect x="135" y="8" width="1" height="2" fill="#C6C600"/>
<rect x="136" y="10" width="1" height="3" fill="#C6C600"/>
<rect x="137" y="13" width="1" height="1" fill="#C6C600"/>
<rect width="1" height="3" transform="matrix(-1 0 0 1 135 10)" fill="#C6C600"/>
<rect width="1" height="1" transform="matrix(-1 0 0 1 134 13)" fill="#C6C600"/>
<rect x="123" y="13" width="1" height="1" fill="#C6C600"/>
<rect x="122" y="12" width="1" height="1" fill="#C6C600"/>
<rect x="121" y="10" width="1" height="2" fill="#C6C600"/>
<rect x="120" y="9" width="1" height="1" fill="#C6C600"/>
<rect x="119" y="8" width="1" height="1" fill="#C6C600"/>
<rect x="118" y="9" width="1" height="1" fill="#C6C600"/>
<rect x="117" y="10" width="1" height="2" fill="#C6C600"/>
<rect x="116" y="12" width="1" height="1" fill="#C6C600"/>
<rect x="115" y="13" width="1" height="1" fill="#C6C600"/>
<rect x="108" y="12" width="2" height="1" fill="#C6C600"/>
<rect x="107" y="11" width="1" height="1" fill="#C6C600"/>
<rect x="105" y="10" width="2" height="1" fill="#C6C600"/>
<rect x="104" y="9" width="1" height="1" fill="#C6C600"/>
<rect x="103" y="8" width="1" height="1" fill="#C6C600"/>
<rect x="102" y="9" width="1" height="1" fill="#C6C600"/>
<rect x="100" y="10" width="2" height="1" fill="#C6C600"/>
<rect x="99" y="11" width="1" height="1" fill="#C6C600"/>
<rect x="97" y="12" width="2" height="1" fill="#C6C600"/>
<rect x="94" y="11" width="1" height="1" fill="#C6C600"/>
<rect x="91" y="10" width="3" height="1" fill="#C6C600"/>
<rect x="89" y="9" width="2" height="1" fill="#C6C600"/>
<rect x="86" y="8" width="3" height="1" fill="#C6C600"/>
<rect x="84" y="9" width="2" height="1" fill="#C6C600"/>
<rect x="81" y="10" width="3" height="1" fill="#C6C600"/>
<rect x="80" y="11" width="1" height="1" fill="#C6C600"/>
<rect x="75" y="9" width="4" height="1" fill="#C6C600"/>
<rect x="68" y="8" width="7" height="1" fill="#C6C600"/>
<rect x="64" y="9" width="4" height="1" fill="#C6C600"/>
<rect x="59" y="7" width="4" height="1" fill="#C6C600"/>
<rect x="52" y="8" width="7" height="1" fill="#C6C600"/>
<rect x="48" y="7" width="4" height="1" fill="#C6C600"/>
<rect x="44" y="6" width="3" height="1" fill="#C6C600"/>
<rect x="41" y="7" width="3" height="1" fill="#C6C600"/>
<rect x="38" y="8" width="3" height="1" fill="#C6C600"/>
<rect x="35" y="7" width="3" height="1" fill="#C6C600"/>
<rect x="32" y="6" width="3" height="1" fill="#C6C600"/>
<rect x="30" y="5" width="1" height="1" fill="#C6C600"/>
<rect x="29" y="4" width="1" height="1" fill="#C6C600"/>
<rect x="27" y="5" width="2" height="1" fill="#C6C600"/>
<rect x="26" y="6" width="1" height="1" fill="#C6C600"/>
<rect x="24" y="7" width="2" height="1" fill="#C6C600"/>
<rect x="23" y="8" width="1" height="1" fill="#C6C600"/>
<rect x="21" y="7" width="2" height="1" fill="#C6C600"/>
<rect x="20" y="6" width="1" height="1" fill="#C6C600"/>
<rect x="18" y="5" width="1" height="1" fill="#C6C600"/>
<rect x="19" y="5" width="1" height="1" fill="#C6C600"/>
<rect x="17" y="4" width="1" height="1" fill="#C6C600"/>
<rect x="16" y="5" width="1" height="1" fill="#C6C600"/>
<rect x="12" y="3" width="2" height="1" fill="#C6C600"/>
<rect x="11" y="4" width="1" height="1" fill="#C6C600"/>
<rect x="10" y="5" width="1" height="1" fill="#C6C600"/>
<rect x="9" y="6" width="1" height="1" fill="#C6C600"/>
<rect x="8" y="7" width="1" height="1" fill="#C6C600"/>
<rect x="7" y="8" width="1" height="1" fill="#C6C600"/>
<rect x="6" y="7" width="1" height="1" fill="#C6C600"/>
<rect x="5" y="6" width="1" height="1" fill="#C6C600"/>
<rect x="4" y="5" width="1" height="1" fill="#C6C600"/>
<rect x="3" y="4" width="1" height="1" fill="#C6C600"/>
<rect x="1" y="3" width="2" height="1" fill="#C6C600"/>
<rect x="9" y="8" width="1" height="2" fill="white"/>
<rect x="10" y="10" width="2" height="1" fill="white"/>
<rect x="10" y="8" width="2" height="2" fill="black"/>
<rect x="26" y="8" width="1" height="2" fill="white"/>
<rect x="27" y="10" width="2" height="1" fill="white"/>
<rect x="27" y="8" width="2" height="2" fill="black"/>
<rect x="42" y="9" width="1" height="1" fill="white"/>
<rect x="43" y="10" width="1" height="1" fill="white"/>
<rect x="43" y="9" width="1" height="1" fill="black"/>
</svg>
