<svg width="65" height="16" viewBox="0 0 65 16" fill="none" xmlns="http://www.w3.org/2000/svg">
<rect width="5" height="4" transform="matrix(-1 0 0 1 59.5 10)" fill="#00BB14"/>
<rect width="2" height="3" transform="matrix(-1 0 0 1 61.5 10)" fill="#00BB14"/>
<rect width="1" height="3" transform="matrix(-1 0 0 1 62.5 9)" fill="#00BB14"/>
<path d="M63 10V5.5H62M62 5.5V6.5V7.5V8.5H61M62 5.5V3M61 8.5V9.5H59M61 8.5H60H59V9.5M61 8.5V7.5M58 9.5H59M58 9.5H57.5M58 9.5V10.5H54.5M61 2V2.5M61 2.5V3.5M61 2.5H55M61 3.5H58H57.5M61 3.5V4.5M61 4.5H57.5M61 4.5V5.5M61 5.5H56.5M61 5.5V6.5M61 6.5V7.5M61 6.5H54M50.5 6.5H51M61 7.5H56M50.5 7.5H56M56 7.5V8.5H50.5M51.5 10.5H54.5M54.5 10.5V11.5M54.5 11.5H51.5M54.5 11.5V12.5H52.5M54 2.5H53V4.5M54 2.5V6.5M54 2.5H55M54 6.5H53M53 6.5H51M53 6.5V4.5M51 6.5V5M53 4.5H52V3M55 2.5V1.5H59H59.5" stroke="#00BB14"/>
<rect width="2" height="2" transform="matrix(-1 0 0 1 56.5 3)" fill="white"/>
<rect width="2" height="2" transform="matrix(-1 0 0 1 56.5 3)" fill="black"/>
<path d="M50.5 9.5H57V8.5H58.5" stroke="#C6C600"/>
<rect width="1" height="1" transform="matrix(-1 0 0 1 52.5 5)" fill="#C6C600"/>
<rect width="2" height="1" transform="matrix(-1 0 0 1 56.5 5)" fill="white"/>
<rect width="2" height="1" transform="matrix(-1 0 0 1 56.5 5)" fill="white"/>
<rect width="1" height="2" transform="matrix(-1 0 0 1 57.5 3)" fill="white"/>
<rect width="1" height="2" transform="matrix(-1 0 0 1 57.5 3)" fill="white"/>
<rect width="5" height="1" transform="matrix(1.19249e-08 -1 -1 -1.19249e-08 20.5 8.99805)" fill="#00BB14"/>
<rect width="6" height="1" transform="matrix(1.19249e-08 -1 -1 -1.19249e-08 21.5 10.998)" fill="#00BB14"/>
<rect width="6" height="1" transform="matrix(1.19249e-08 -1 -1 -1.19249e-08 22.5 11.998)" fill="#00BB14"/>
<rect width="5" height="1" transform="matrix(1.19249e-08 -1 -1 -1.19249e-08 23.5 11.998)" fill="#00BB14"/>
<rect width="5" height="1" transform="matrix(1.19249e-08 -1 -1 -1.19249e-08 24.5 12.998)" fill="#00BB14"/>
<rect width="4" height="1" transform="matrix(1.19249e-08 -1 -1 -1.19249e-08 25.5 12.998)" fill="#00BB14"/>
<rect width="4" height="1" transform="matrix(1.19249e-08 -1 -1 -1.19249e-08 27.5 12.998)" fill="#00BB14"/>
<rect width="5" height="1" transform="matrix(1.19249e-08 -1 -1 -1.19249e-08 28.5 12.998)" fill="#00BB14"/>
<rect width="3" height="1" transform="matrix(1.19249e-08 -1 -1 -1.19249e-08 26.5 12.998)" fill="#00BB14"/>
<rect width="2" height="1" transform="matrix(1.19249e-08 -1 -1 -1.19249e-08 29.5 11.998)" fill="#00BB14"/>
<rect width="1" height="1" transform="matrix(1.19249e-08 -1 -1 -1.19249e-08 30.5 11.998)" fill="#00BB14"/>
<rect width="2" height="1" transform="matrix(1.19249e-08 -1 -1 -1.19249e-08 32.5 8.99805)" fill="#00BB14"/>
<rect width="2" height="1" transform="matrix(1.19249e-08 -1 -1 -1.19249e-08 32.5 5.99805)" fill="#00BB14"/>
<rect width="3" height="1" transform="matrix(1.19249e-08 -1 -1 -1.19249e-08 31.5 7.99805)" fill="#00BB14"/>
<rect width="2" height="1" transform="matrix(1.19249e-08 -1 -1 -1.19249e-08 30.5 7.99805)" fill="#00BB14"/>
<rect width="1" height="1" transform="matrix(1.19249e-08 -1 -1 -1.19249e-08 29.5 7.99805)" fill="#00BB14"/>
<rect width="2" height="1" transform="matrix(1.19249e-08 -1 -1 -1.19249e-08 29.5 9.99805)" fill="white"/>
<rect width="1" height="2" transform="matrix(1.19249e-08 -1 -1 -1.19249e-08 31.5 10.998)" fill="white"/>
<rect width="1" height="1" transform="matrix(1.19249e-08 -1 -1 -1.19249e-08 30.5 4.99805)" fill="white"/>
<rect width="1" height="1" transform="matrix(1.19249e-08 -1 -1 -1.19249e-08 27.5 7.99805)" fill="white"/>
<rect width="1" height="1" transform="matrix(1.19249e-08 -1 -1 -1.19249e-08 22.5 4.99805)" fill="white"/>
<rect width="2" height="2" transform="matrix(1.19249e-08 -1 -1 -1.19249e-08 31.5 9.99805)" fill="black"/>
<rect width="2" height="2" transform="matrix(1.19249e-08 -1 -1 -1.19249e-08 27.5 3.99805)" fill="#FF0000"/>
<rect width="2" height="2" transform="matrix(1.19249e-08 -1 -1 -1.19249e-08 26.5 4.99805)" fill="#FF0000"/>
<rect width="3" height="2" transform="matrix(1.19249e-08 -1 -1 -1.19249e-08 25.5 6.99805)" fill="#FF0000"/>
<rect width="1" height="2" transform="matrix(1.19249e-08 -1 -1 -1.19249e-08 26.5 7.99805)" fill="#FF0000"/>
<rect width="1" height="1" transform="matrix(1.19249e-08 -1 -1 -1.19249e-08 26.5 8.99805)" fill="#FF0000"/>
<rect width="1" height="1" transform="matrix(1.19249e-08 -1 -1 -1.19249e-08 31.5 4.99805)" fill="#C6C600"/>
<rect width="1" height="1" transform="matrix(1.19249e-08 -1 -1 -1.19249e-08 30.5 5.99805)" fill="#C6C600"/>
<rect width="1" height="1" transform="matrix(1.19249e-08 -1 -1 -1.19249e-08 29.5 6.99805)" fill="#C6C600"/>
<rect width="1" height="1" transform="matrix(1.19249e-08 -1 -1 -1.19249e-08 28.5 7.99805)" fill="#C6C600"/>
<rect width="1" height="1" transform="matrix(1.19249e-08 -1 -1 -1.19249e-08 27.5 8.99805)" fill="#C6C600"/>
<rect width="1" height="1" transform="matrix(1.19249e-08 -1 -1 -1.19249e-08 26.5 9.99805)" fill="#C6C600"/>
<rect width="1" height="1" transform="matrix(1.19249e-08 -1 -1 -1.19249e-08 25.5 8.99805)" fill="#C6C600"/>
<rect width="1" height="1" transform="matrix(1.19249e-08 -1 -1 -1.19249e-08 24.5 7.99805)" fill="#C6C600"/>
<rect width="1" height="1" transform="matrix(1.19249e-08 -1 -1 -1.19249e-08 23.5 6.99805)" fill="#C6C600"/>
<rect width="1" height="1" transform="matrix(1.19249e-08 -1 -1 -1.19249e-08 22.5 5.99805)" fill="#C6C600"/>
<rect width="1" height="1" transform="matrix(1.19249e-08 -1 -1 -1.19249e-08 21.5 4.99805)" fill="#C6C600"/>
<rect width="1" height="1" transform="matrix(1.19249e-08 -1 -1 -1.19249e-08 32.5 6.99805)" fill="#C6C600"/>
<rect width="1" height="1" transform="matrix(1.19249e-08 -1 -1 -1.19249e-08 48 9.49805)" fill="#00BB14"/>
<rect width="1" height="1" transform="matrix(1.19249e-08 -1 -1 -1.19249e-08 48 7.49805)" fill="#00BB14"/>
<rect width="3" height="3" transform="matrix(1.19249e-08 -1 -1 -1.19249e-08 47 7.49805)" fill="#00BB14"/>
<rect width="2" height="1" transform="matrix(1.19249e-08 -1 -1 -1.19249e-08 48 6.49805)" fill="#00BB14"/>
<rect width="3" height="1" transform="matrix(1.19249e-08 -1 -1 -1.19249e-08 46 4.49805)" fill="#00BB14"/>
<rect width="1" height="1" transform="matrix(1.19249e-08 -1 -1 -1.19249e-08 48 8.49805)" fill="#00BB14"/>
<rect width="1" height="1" transform="matrix(1.19249e-08 -1 -1 -1.19249e-08 45 4.49805)" fill="#00BB14"/>
<rect width="1" height="1" transform="matrix(1.19249e-08 -1 -1 -1.19249e-08 47 3.49805)" fill="#00BB14"/>
<rect width="1" height="1" transform="matrix(1.19249e-08 -1 -1 -1.19249e-08 48 8.49805)" fill="#00BB14"/>
<rect width="1" height="1" transform="matrix(1.19249e-08 -1 -1 -1.19249e-08 44 7.49805)" fill="#00BB14"/>
<rect width="1" height="1" transform="matrix(1.19249e-08 -1 -1 -1.19249e-08 44 9.49805)" fill="#00BB14"/>
<rect width="1" height="1" transform="matrix(1.19249e-08 -1 -1 -1.19249e-08 44 8.49805)" fill="#00BB14"/>
<rect width="1" height="1" transform="matrix(1.19249e-08 -1 -1 -1.19249e-08 44 10.498)" fill="#00BB14"/>
<rect width="1" height="1" transform="matrix(1.19249e-08 -1 -1 -1.19249e-08 45 10.498)" fill="#00BB14"/>
<rect width="1" height="11" transform="matrix(1.19249e-08 -1 -1 -1.19249e-08 47 11.498)" fill="#00BB14"/>
<rect width="1" height="9" transform="matrix(1.19249e-08 -1 -1 -1.19249e-08 46 12.498)" fill="#00BB14"/>
<rect width="1" height="5" transform="matrix(1.19249e-08 -1 -1 -1.19249e-08 44 13.498)" fill="#00BB14"/>
<rect width="1" height="1" transform="matrix(1.19249e-08 -1 -1 -1.19249e-08 43 10.498)" fill="#00BB14"/>
<rect width="1" height="5" transform="matrix(1.19249e-08 -1 -1 -1.19249e-08 41 10.498)" fill="#00BB14"/>
<rect width="3" height="5" transform="matrix(1.19249e-08 -1 -1 -1.19249e-08 40 9.49805)" fill="#00BB14"/>
<rect width="1" height="1" transform="matrix(1.19249e-08 -1 -1 -1.19249e-08 44 7.49805)" fill="#00BB14"/>
<rect width="1" height="4" transform="matrix(1.19249e-08 -1 -1 -1.19249e-08 39 6.49805)" fill="#00BB14"/>
<rect width="1" height="4" transform="matrix(1.19249e-08 -1 -1 -1.19249e-08 39 5.49805)" fill="#00BB14"/>
<rect width="2" height="2" transform="matrix(1.19249e-08 -1 -1 -1.19249e-08 38 4.49805)" fill="#00BB14"/>
<rect width="1" height="1" transform="matrix(1.19249e-08 -1 -1 -1.19249e-08 39 4.49805)" fill="#00BB14"/>
<rect width="1" height="1" transform="matrix(1.19249e-08 -1 -1 -1.19249e-08 38 2.49805)" fill="#00BB14"/>
<rect width="2" height="1" transform="matrix(1.19249e-08 -1 -1 -1.19249e-08 39 3.49805)" fill="#C6C600"/>
<rect width="1" height="1" transform="matrix(1.19249e-08 -1 -1 -1.19249e-08 42 10.498)" fill="#C6C600"/>
<rect width="3" height="1" transform="matrix(1.19249e-08 -1 -1 -1.19249e-08 43 9.49805)" fill="#C6C600"/>
<rect width="3" height="1" transform="matrix(1.19249e-08 -1 -1 -1.19249e-08 44 6.49805)" fill="#C6C600"/>
<rect width="2" height="1" transform="matrix(1.19249e-08 -1 -1 -1.19249e-08 45 3.49805)" fill="#C6C600"/>
<rect width="1" height="1" transform="matrix(1.19249e-08 -1 -1 -1.19249e-08 47 4.49805)" fill="#C6C600"/>
<rect width="3" height="1" transform="matrix(1.19249e-08 -1 -1 -1.19249e-08 42 4.49805)" fill="#FF0000"/>
<rect width="4" height="1" transform="matrix(1.19249e-08 -1 -1 -1.19249e-08 41 6.49805)" fill="#FF0000"/>
<rect width="4" height="1" transform="matrix(1.19249e-08 -1 -1 -1.19249e-08 42 9.49805)" fill="#FF0000"/>
<rect width="1" height="1" transform="matrix(1.19249e-08 -1 -1 -1.19249e-08 43 6.49805)" fill="white"/>
<rect width="1" height="1" transform="matrix(1.19249e-08 -1 -1 -1.19249e-08 44 3.49805)" fill="white"/>
<rect width="1" height="1" transform="matrix(1.19249e-08 -1 -1 -1.19249e-08 40 2.49805)" fill="white"/>
<rect width="2" height="1" transform="matrix(1.19249e-08 -1 -1 -1.19249e-08 45 9.49805)" fill="white"/>
<rect width="1" height="2" transform="matrix(1.19249e-08 -1 -1 -1.19249e-08 47 10.498)" fill="white"/>
<rect width="2" height="2" transform="matrix(1.19249e-08 -1 -1 -1.19249e-08 47 9.49805)" fill="black"/>
<rect width="3" height="1" transform="matrix(1.19249e-08 -1 -1 -1.19249e-08 40 6.49805)" fill="#C6C600"/>
<rect width="3" height="1" transform="matrix(1.19249e-08 -1 -1 -1.19249e-08 41 9.49805)" fill="#C6C600"/>
<rect width="1" height="1" transform="matrix(1.19249e-08 -1 -1 -1.19249e-08 16 9.49805)" fill="#00BB14"/>
<rect width="1" height="1" transform="matrix(1.19249e-08 -1 -1 -1.19249e-08 16 7.49805)" fill="#00BB14"/>
<rect width="3" height="3" transform="matrix(1.19249e-08 -1 -1 -1.19249e-08 15 7.49805)" fill="#00BB14"/>
<rect width="2" height="1" transform="matrix(1.19249e-08 -1 -1 -1.19249e-08 16 6.49805)" fill="#00BB14"/>
<rect width="3" height="1" transform="matrix(1.19249e-08 -1 -1 -1.19249e-08 14 4.49805)" fill="#00BB14"/>
<rect width="1" height="1" transform="matrix(1.19249e-08 -1 -1 -1.19249e-08 16 8.49805)" fill="#00BB14"/>
<rect width="1" height="1" transform="matrix(1.19249e-08 -1 -1 -1.19249e-08 13 4.49805)" fill="#00BB14"/>
<rect width="1" height="1" transform="matrix(1.19249e-08 -1 -1 -1.19249e-08 15 3.49805)" fill="#00BB14"/>
<rect width="1" height="1" transform="matrix(1.19249e-08 -1 -1 -1.19249e-08 16 8.49805)" fill="#00BB14"/>
<rect width="1" height="1" transform="matrix(1.19249e-08 -1 -1 -1.19249e-08 12 7.49805)" fill="#00BB14"/>
<rect width="1" height="1" transform="matrix(1.19249e-08 -1 -1 -1.19249e-08 12 9.49805)" fill="#00BB14"/>
<rect width="1" height="1" transform="matrix(1.19249e-08 -1 -1 -1.19249e-08 12 8.49805)" fill="#00BB14"/>
<rect width="1" height="1" transform="matrix(1.19249e-08 -1 -1 -1.19249e-08 12 10.498)" fill="#00BB14"/>
<rect width="1" height="1" transform="matrix(1.19249e-08 -1 -1 -1.19249e-08 13 10.498)" fill="#00BB14"/>
<rect width="1" height="11" transform="matrix(1.19249e-08 -1 -1 -1.19249e-08 15 11.498)" fill="#00BB14"/>
<rect width="1" height="9" transform="matrix(1.19249e-08 -1 -1 -1.19249e-08 14 12.498)" fill="#00BB14"/>
<rect width="1" height="5" transform="matrix(1.19249e-08 -1 -1 -1.19249e-08 12 13.498)" fill="#00BB14"/>
<rect width="1" height="1" transform="matrix(1.19249e-08 -1 -1 -1.19249e-08 11 10.498)" fill="#00BB14"/>
<rect width="1" height="5" transform="matrix(1.19249e-08 -1 -1 -1.19249e-08 9 10.498)" fill="#00BB14"/>
<rect width="3" height="5" transform="matrix(1.19249e-08 -1 -1 -1.19249e-08 8 9.49805)" fill="#00BB14"/>
<rect width="1" height="1" transform="matrix(1.19249e-08 -1 -1 -1.19249e-08 12 7.49805)" fill="#00BB14"/>
<rect width="1" height="4" transform="matrix(1.19249e-08 -1 -1 -1.19249e-08 7 6.49805)" fill="#00BB14"/>
<rect width="1" height="4" transform="matrix(1.19249e-08 -1 -1 -1.19249e-08 7 5.49805)" fill="#00BB14"/>
<rect width="2" height="2" transform="matrix(1.19249e-08 -1 -1 -1.19249e-08 6 4.49805)" fill="#00BB14"/>
<rect width="1" height="1" transform="matrix(1.19249e-08 -1 -1 -1.19249e-08 7 4.49805)" fill="#00BB14"/>
<rect width="1" height="1" transform="matrix(1.19249e-08 -1 -1 -1.19249e-08 6 2.49805)" fill="#00BB14"/>
<rect width="2" height="1" transform="matrix(1.19249e-08 -1 -1 -1.19249e-08 7 3.49805)" fill="#C6C600"/>
<rect width="1" height="1" transform="matrix(1.19249e-08 -1 -1 -1.19249e-08 10 10.498)" fill="#C6C600"/>
<rect width="3" height="1" transform="matrix(1.19249e-08 -1 -1 -1.19249e-08 11 9.49805)" fill="#C6C600"/>
<rect width="3" height="1" transform="matrix(1.19249e-08 -1 -1 -1.19249e-08 12 6.49805)" fill="#C6C600"/>
<rect width="2" height="1" transform="matrix(1.19249e-08 -1 -1 -1.19249e-08 13 3.49805)" fill="#C6C600"/>
<rect width="1" height="1" transform="matrix(1.19249e-08 -1 -1 -1.19249e-08 15 4.49805)" fill="#C6C600"/>
<rect width="3" height="1" transform="matrix(1.19249e-08 -1 -1 -1.19249e-08 10 4.49805)" fill="#FF0000"/>
<rect width="4" height="1" transform="matrix(1.19249e-08 -1 -1 -1.19249e-08 9 6.49805)" fill="#FF0000"/>
<rect width="4" height="1" transform="matrix(1.19249e-08 -1 -1 -1.19249e-08 10 9.49805)" fill="#FF0000"/>
<rect width="1" height="1" transform="matrix(1.19249e-08 -1 -1 -1.19249e-08 11 6.49805)" fill="white"/>
<rect width="1" height="1" transform="matrix(1.19249e-08 -1 -1 -1.19249e-08 12 3.49805)" fill="white"/>
<rect width="1" height="1" transform="matrix(1.19249e-08 -1 -1 -1.19249e-08 8 2.49805)" fill="white"/>
<rect width="2" height="1" transform="matrix(1.19249e-08 -1 -1 -1.19249e-08 13 9.49805)" fill="white"/>
<rect width="1" height="2" transform="matrix(1.19249e-08 -1 -1 -1.19249e-08 15 10.498)" fill="white"/>
<rect width="2" height="2" transform="matrix(1.19249e-08 -1 -1 -1.19249e-08 15 9.49805)" fill="black"/>
<rect width="3" height="1" transform="matrix(1.19249e-08 -1 -1 -1.19249e-08 8 6.49805)" fill="#C6C600"/>
<rect width="3" height="1" transform="matrix(1.19249e-08 -1 -1 -1.19249e-08 9 9.49805)" fill="#C6C600"/>
<rect x="63.5" y="5" width="5" height="13" transform="rotate(90 63.5 5)" fill="#00BB14"/>
<rect x="62.5" y="10" width="2" height="11" transform="rotate(90 62.5 10)" fill="#00BB14"/>
<rect x="62.5" y="4" width="1" height="11" transform="rotate(90 62.5 4)" fill="#00BB14"/>
<rect x="62.5" y="3" width="1" height="11" transform="rotate(90 62.5 3)" fill="#00BB14"/>
<rect x="61.5" y="12" width="1" height="9" transform="rotate(90 61.5 12)" fill="#00BB14"/>
<rect x="61.5" y="2" width="1" height="9" transform="rotate(90 61.5 2)" fill="#00BB14"/>
<rect x="59.5" y="13" width="1" height="5" transform="rotate(90 59.5 13)" fill="#00BB14"/>
<rect x="59.5" y="1" width="1" height="5" transform="rotate(90 59.5 1)" fill="#00BB14"/>
<rect x="55.5" y="1" width="7" height="1" transform="rotate(90 55.5 1)" fill="#C6C600"/>
<rect x="56.5" y="7" width="2" height="1" transform="rotate(90 56.5 7)" fill="#C6C600"/>
<rect x="59.5" y="2" width="1" height="1" transform="rotate(90 59.5 2)" fill="#C6C600"/>
<rect x="61.5" y="5" width="2" height="2" transform="rotate(90 61.5 5)" fill="black"/>
<rect x="61.5" y="7" width="1" height="2" transform="rotate(90 61.5 7)" fill="white"/>
<rect x="61.5" y="7" width="1" height="2" transform="rotate(90 61.5 7)" fill="white"/>
<rect x="59.5" y="5" width="2" height="1" transform="rotate(90 59.5 5)" fill="white"/>
<rect x="59.5" y="5" width="2" height="1" transform="rotate(90 59.5 5)" fill="white"/>
</svg>
