<svg width="224" height="248" viewBox="0 0 224 248" fill="none" xmlns="http://www.w3.org/2000/svg">
<rect width="224" height="248" fill="#004C08"/>
<rect x="222" y="75" width="1" height="3" fill="#00D016"/>
<rect x="220" y="4" width="4" height="72" fill="#00D016"/>
<rect x="219" y="1" width="3" height="4" fill="#00D016"/>
<rect x="222" y="2" width="1" height="2" fill="#00D016"/>
<rect x="4" width="216" height="4" fill="#00D016"/>
<rect x="2" y="1" width="3" height="4" fill="#00D016"/>
<rect x="1" y="2" width="3" height="4" fill="#00D016"/>
<rect y="4" width="4" height="72" fill="#00D016"/>
<rect x="1" y="154" width="1" height="3" fill="#00D016"/>
<rect y="156" width="4" height="88" fill="#00D016"/>
<rect x="1" y="243" width="4" height="3" fill="#00D016"/>
<rect x="2" y="245" width="3" height="2" fill="#00D016"/>
<rect x="4" y="244" width="216" height="4" fill="#00D016"/>
<rect x="219" y="243" width="3" height="4" fill="#00D016"/>
<rect x="222" y="243" width="1" height="3" fill="#00D016"/>
<rect x="220" y="156" width="4" height="88" fill="#00D016"/>
<rect x="220" y="153" width="2" height="1" fill="#00D016"/>
<rect x="68" y="126" width="28" height="8" transform="rotate(90 68 126)" fill="#00D016"/>
<rect x="67" y="154" width="1" height="6" transform="rotate(90 67 154)" fill="#00D016"/>
<rect x="66" y="155" width="1" height="4" transform="rotate(90 66 155)" fill="#00D016"/>
<rect x="67" y="125" width="1" height="6" transform="rotate(90 67 125)" fill="#00D016"/>
<rect x="66" y="124" width="1" height="4" transform="rotate(90 66 124)" fill="#00D016"/>
<rect x="164" y="126" width="28" height="8" transform="rotate(90 164 126)" fill="#00D016"/>
<rect x="163" y="154" width="1" height="6" transform="rotate(90 163 154)" fill="#00D016"/>
<rect x="162" y="155" width="1" height="4" transform="rotate(90 162 155)" fill="#00D016"/>
<rect x="163" y="125" width="1" height="6" transform="rotate(90 163 125)" fill="#00D016"/>
<rect x="162" y="124" width="1" height="4" transform="rotate(90 162 124)" fill="#00D016"/>
<rect x="136" y="100" width="4" height="32" fill="#00D016"/>
<rect x="120" y="100" width="16" height="4" fill="#00D016"/>
<rect x="84" y="100" width="20" height="4" fill="#00D016"/>
<rect x="84" y="104" width="4" height="28" fill="#00D016"/>
<rect x="88" y="128" width="48" height="4" fill="#00D016"/>
<rect x="104" y="101" width="16" height="2" fill="#0CC51F"/>
<rect y="75" width="4" height="85" fill="#00D016"/>
<rect x="60" y="76" width="8" height="30" fill="#00D016"/>
<rect x="61" y="106" width="6" height="1" fill="#00D016"/>
<rect x="62" y="107" width="4" height="1" fill="#00D016"/>
<rect x="68" y="76" width="1" height="9" fill="#00D016"/>
<rect x="69" y="76" width="21" height="8" fill="#00D016"/>
<rect x="90" y="77" width="1" height="6" fill="#00D016"/>
<rect x="91" y="78" width="1" height="4" fill="#00D016"/>
<rect x="134" y="76" width="30" height="8" fill="#00D016"/>
<rect x="133" y="77" width="1" height="6" fill="#00D016"/>
<rect x="132" y="78" width="1" height="4" fill="#00D016"/>
<rect x="158" y="76" width="4" height="32" fill="#00D016"/>
<rect x="157" y="76" width="7" height="30" fill="#00D016"/>
<rect x="156" y="76" width="2" height="30" fill="#00D016"/>
<rect x="157" y="106" width="6" height="1" fill="#00D016"/>
<rect x="155" y="84" width="1" height="1" fill="#00D016"/>
<rect x="162" y="76" width="2" height="1" fill="#004C08"/>
<rect x="163" y="77" width="1" height="1" fill="#004C08"/>
<rect x="60" y="76" width="1" height="2" fill="#004C08"/>
<rect x="61" y="76" width="1" height="1" fill="#004C08"/>
<rect width="8" height="30" transform="matrix(1 0 0 -1 60 156)" fill="#00D016"/>
<rect width="6" height="1" transform="matrix(1 0 0 -1 61 126)" fill="#00D016"/>
<rect width="4" height="1" transform="matrix(1 0 0 -1 62 125)" fill="#00D016"/>
<rect width="1" height="9" transform="matrix(1 0 0 -1 68 156)" fill="#00D016"/>
<rect width="21" height="8" transform="matrix(1 0 0 -1 69 156)" fill="#00D016"/>
<rect width="1" height="6" transform="matrix(1 0 0 -1 90 155)" fill="#00D016"/>
<rect width="1" height="4" transform="matrix(1 0 0 -1 91 154)" fill="#00D016"/>
<rect width="30" height="8" transform="matrix(1 0 0 -1 134 156)" fill="#00D016"/>
<rect width="1" height="6" transform="matrix(1 0 0 -1 133 155)" fill="#00D016"/>
<rect width="1" height="4" transform="matrix(1 0 0 -1 132 154)" fill="#00D016"/>
<rect width="4" height="32" transform="matrix(1 0 0 -1 158 156)" fill="#00D016"/>
<rect width="7" height="30" transform="matrix(1 0 0 -1 157 156)" fill="#00D016"/>
<rect width="2" height="30" transform="matrix(1 0 0 -1 156 156)" fill="#00D016"/>
<rect width="6" height="1" transform="matrix(1 0 0 -1 157 126)" fill="#00D016"/>
<rect width="1" height="1" transform="matrix(1 0 0 -1 155 148)" fill="#00D016"/>
<rect width="2" height="1" transform="matrix(1 0 0 -1 162 156)" fill="#004C08"/>
<rect width="1" height="1" transform="matrix(1 0 0 -1 163 155)" fill="#004C08"/>
<rect width="1" height="2" transform="matrix(1 0 0 -1 60 156)" fill="#004C08"/>
<rect width="1" height="1" transform="matrix(1 0 0 -1 61 156)" fill="#004C08"/>
<rect x="220" y="74" width="4" height="83" fill="#00D016"/>
<rect x="33" y="17" width="8" height="44" fill="#00D016"/>
<rect x="41" y="54" width="14" height="7" fill="#00D016"/>
<rect x="65" y="17" width="6" height="44" fill="#00D016"/>
<rect x="88" y="31" width="8" height="11" fill="#00D016"/>
<rect x="81" y="17" width="22" height="6" fill="#00D016"/>
<rect x="96" y="23" width="7" height="9" fill="#00D016"/>
<rect x="103" y="61" width="22" height="6" transform="rotate(-180 103 61)" fill="#00D016"/>
<rect x="88" y="56" width="7" height="16" transform="rotate(-180 88 56)" fill="#00D016"/>
<rect x="145" y="17" width="22" height="6" fill="#00D016"/>
<rect x="145" y="23" width="7" height="38" fill="#00D016"/>
<rect x="160" y="23" width="7" height="16" fill="#00D016"/>
<rect x="152" y="39" width="8" height="8" fill="#00D016"/>
<rect x="160" y="47" width="7" height="14" fill="#00D016"/>
<rect x="192" y="24" width="8" height="32" fill="#00D016"/>
<rect x="177" y="23" width="7" height="38" fill="#00D016"/>
<rect x="177" y="17" width="15" height="7" fill="#00D016"/>
<rect x="177" y="56" width="15" height="6" fill="#00D016"/>
<rect x="33" y="17" width="2" height="1" fill="#004C08"/>
<rect x="33" y="18" width="1" height="1" fill="#004C08"/>
<rect width="2" height="1" transform="matrix(-1 0 0 1 55 54)" fill="#004C08"/>
<rect width="1" height="2" transform="matrix(-1 0 0 1 55 54)" fill="#004C08"/>
<rect x="55" y="62" width="2" height="2" transform="rotate(-180 55 62)" fill="#004C08"/>
<rect x="55" y="61" width="1" height="2" transform="rotate(-180 55 61)" fill="#004C08"/>
<rect width="2" height="2" transform="matrix(1 0 0 -1 33 62)" fill="#004C08"/>
<rect width="1" height="2" transform="matrix(1 0 0 -1 33 61)" fill="#004C08"/>
<rect x="41" y="53" width="1" height="1" fill="#00D016"/>
<rect width="2" height="1" transform="matrix(-1 0 0 1 41 17)" fill="#004C08"/>
<rect width="1" height="1" transform="matrix(-1 0 0 1 41 18)" fill="#004C08"/>
<rect width="2" height="1" transform="matrix(-1 0 0 1 71 17)" fill="#004C08"/>
<rect width="1" height="1" transform="matrix(-1 0 0 1 71 18)" fill="#004C08"/>
<rect x="65" y="17" width="2" height="1" fill="#004C08"/>
<rect x="65" y="18" width="1" height="1" fill="#004C08"/>
<rect width="2" height="1" transform="matrix(1 0 0 -1 65 61)" fill="#004C08"/>
<rect width="1" height="1" transform="matrix(1 0 0 -1 65 60)" fill="#004C08"/>
<rect x="71" y="61" width="2" height="1" transform="rotate(-180 71 61)" fill="#004C08"/>
<rect x="71" y="60" width="1" height="1" transform="rotate(-180 71 60)" fill="#004C08"/>
<rect x="103" y="61" width="2" height="1" transform="rotate(-180 103 61)" fill="#004C08"/>
<rect x="103" y="60" width="1" height="1" transform="rotate(-180 103 60)" fill="#004C08"/>
<rect width="2" height="1" transform="matrix(-1 0 0 1 103 55)" fill="#004C08"/>
<rect width="1" height="1" transform="matrix(-1 0 0 1 103 56)" fill="#004C08"/>
<rect width="2" height="1" transform="matrix(1 0 0 -1 81 61)" fill="#004C08"/>
<rect width="1" height="1" transform="matrix(1 0 0 -1 81 60)" fill="#004C08"/>
<rect width="2" height="1" transform="matrix(-1 0 0 1 103 17)" fill="#004C08"/>
<rect width="1" height="1" transform="matrix(-1 0 0 1 103 18)" fill="#004C08"/>
<rect x="103" y="32" width="2" height="1" transform="rotate(-180 103 32)" fill="#004C08"/>
<rect x="103" y="31" width="1" height="1" transform="rotate(-180 103 31)" fill="#004C08"/>
<rect x="81" y="17" width="2" height="1" fill="#004C08"/>
<rect x="81" y="18" width="1" height="1" fill="#004C08"/>
<rect width="2" height="1" transform="matrix(1 0 0 -1 81 23)" fill="#004C08"/>
<rect width="1" height="1" transform="matrix(1 0 0 -1 81 22)" fill="#004C08"/>
<rect x="88" y="31" width="1" height="1" fill="#004C08"/>
<rect x="95" y="41" width="1" height="1" fill="#004C08"/>
<rect x="81" y="40" width="1" height="1" fill="#004C08"/>
<rect x="165" y="47" width="2" height="1" fill="#004C08"/>
<rect x="166" y="48" width="1" height="1" fill="#004C08"/>
<rect x="166" y="60" width="1" height="1" fill="#004C08"/>
<rect x="160" y="60" width="1" height="1" fill="#004C08"/>
<rect x="160" y="46" width="1" height="1" fill="#00D016"/>
<rect x="159" y="47" width="1" height="1" fill="#00D016"/>
<rect x="166" y="38" width="1" height="1" fill="#004C08"/>
<rect x="165" y="17" width="2" height="1" fill="#004C08"/>
<rect x="166" y="17" width="1" height="2" fill="#004C08"/>
<rect x="166" y="37" width="1" height="1" fill="#004C08"/>
<rect x="165" y="38" width="1" height="1" fill="#004C08"/>
<rect x="145" y="17" width="2" height="1" fill="#004C08"/>
<rect x="145" y="18" width="1" height="1" fill="#004C08"/>
<rect x="145" y="59" width="1" height="2" fill="#004C08"/>
<rect x="146" y="60" width="1" height="1" fill="#004C08"/>
<rect x="151" y="59" width="1" height="2" fill="#004C08"/>
<rect x="150" y="60" width="1" height="1" fill="#004C08"/>
<rect x="152" y="47" width="1" height="1" fill="#00D016"/>
<rect x="159" y="38" width="1" height="1" fill="#00D016"/>
<rect x="160" y="39" width="1" height="1" fill="#00D016"/>
<rect x="152" y="38" width="1" height="1" fill="#00D016"/>
<rect x="152" y="23" width="1" height="1" fill="#00D016"/>
<rect x="159" y="23" width="1" height="1" fill="#00D016"/>
<rect x="198" y="24" width="2" height="1" fill="#004C08"/>
<rect x="199" y="25" width="1" height="1" fill="#004C08"/>
<rect x="199" y="54" width="1" height="2" fill="#004C08"/>
<rect x="198" y="55" width="1" height="1" fill="#004C08"/>
<rect x="191" y="55" width="1" height="1" fill="#00D016"/>
<rect x="192" y="56" width="1" height="1" fill="#00D016"/>
<rect x="191" y="60" width="1" height="2" fill="#004C08"/>
<rect x="190" y="61" width="1" height="1" fill="#004C08"/>
<rect x="177" y="60" width="1" height="2" fill="#004C08"/>
<rect x="178" y="61" width="1" height="1" fill="#004C08"/>
<rect x="177" y="17" width="2" height="1" fill="#004C08"/>
<rect x="177" y="18" width="1" height="1" fill="#004C08"/>
<rect x="190" y="17" width="2" height="1" fill="#004C08"/>
<rect x="191" y="18" width="1" height="1" fill="#004C08"/>
<rect x="192" y="23" width="1" height="1" fill="#00D016"/>
<rect x="191" y="24" width="1" height="1" fill="#00D016"/>
<rect x="184" y="24" width="1" height="1" fill="#00D016"/>
<rect x="184" y="55" width="1" height="1" fill="#00D016"/>
<rect x="129" y="23" width="6" height="38" fill="#00D016"/>
<rect x="119" y="33" width="10" height="6" fill="#00D016"/>
<rect x="112" y="23" width="7" height="38" fill="#00D016"/>
<rect x="119" y="17" width="10" height="6" fill="#00D016"/>
<rect x="119" y="17" width="1" height="2" fill="#004C08"/>
<rect x="120" y="17" width="1" height="1" fill="#004C08"/>
<rect x="119" y="17" width="1" height="2" fill="#004C08"/>
<rect x="120" y="17" width="1" height="1" fill="#004C08"/>
<rect x="112" y="23" width="1" height="2" fill="#004C08"/>
<rect x="113" y="23" width="1" height="1" fill="#004C08"/>
<rect width="1" height="2" transform="matrix(-1 0 0 1 135 23)" fill="#004C08"/>
<rect width="1" height="1" transform="matrix(-1 0 0 1 134 23)" fill="#004C08"/>
<rect width="1" height="2" transform="matrix(-1 0 0 1 129 17)" fill="#004C08"/>
<rect width="1" height="1" transform="matrix(-1 0 0 1 128 17)" fill="#004C08"/>
<rect x="128" y="32" width="1" height="1" fill="#00D016"/>
<rect x="128" y="23" width="1" height="1" fill="#00D016"/>
<rect x="119" y="23" width="1" height="1" fill="#00D016"/>
<rect x="119" y="32" width="1" height="1" fill="#00D016"/>
<rect x="134" y="59" width="1" height="2" fill="#004C08"/>
<rect x="133" y="60" width="1" height="1" fill="#004C08"/>
<rect x="129" y="60" width="1" height="1" fill="#004C08"/>
<rect x="129" y="59" width="1" height="1" fill="#004C08"/>
<rect x="130" y="60" width="1" height="1" fill="#004C08"/>
<rect x="128" y="39" width="1" height="1" fill="#00D016"/>
<rect x="119" y="39" width="1" height="1" fill="#00D016"/>
<rect x="118" y="59" width="1" height="2" fill="#004C08"/>
<rect x="117" y="60" width="1" height="1" fill="#004C08"/>
<rect x="112" y="60" width="2" height="1" fill="#004C08"/>
<rect x="112" y="59" width="1" height="1" fill="#004C08"/>
<rect x="129" y="22" width="1" height="1" fill="#00D016"/>
<rect x="118" y="22" width="1" height="1" fill="#00D016"/>
<rect x="130" y="22" width="1" height="1" fill="#00D016"/>
<rect x="117" y="22" width="1" height="1" fill="#00D016"/>
<rect x="119" y="190" width="8" height="40" fill="#00D016"/>
<rect x="105" y="201" width="14" height="6" fill="#00D016"/>
<rect x="96" y="190" width="9" height="40" fill="#00D016"/>
<rect x="105" y="184" width="14" height="6" fill="#00D016"/>
<rect x="105.435" y="184" width="1.34783" height="2.09091" fill="#004C08"/>
<rect x="106.782" y="184" width="1.34783" height="1.04545" fill="#004C08"/>
<rect x="105" y="184" width="1" height="2" fill="#004C08"/>
<rect x="106" y="184" width="2" height="1" fill="#004C08"/>
<rect x="96" y="190" width="1" height="2" fill="#004C08"/>
<rect x="97" y="190" width="2" height="1" fill="#004C08"/>
<rect width="1" height="2" transform="matrix(-1 0 0 1 127 190)" fill="#004C08"/>
<rect width="2" height="1" transform="matrix(-1 0 0 1 126 190)" fill="#004C08"/>
<rect width="1" height="2" transform="matrix(-1 0 0 1 119 184)" fill="#004C08"/>
<rect width="1" height="1" transform="matrix(-1 0 0 1 118 184)" fill="#004C08"/>
<rect x="118" y="200" width="1" height="1" fill="#00D016"/>
<rect x="118" y="190" width="1" height="1" fill="#00D016"/>
<rect x="105" y="190" width="1" height="1" fill="#00D016"/>
<rect x="105" y="200" width="1" height="1" fill="#00D016"/>
<rect x="126" y="228" width="1" height="2" fill="#004C08"/>
<rect x="124" y="229" width="2" height="1" fill="#004C08"/>
<rect x="119" y="229" width="1" height="1" fill="#004C08"/>
<rect x="119" y="228" width="1" height="1" fill="#004C08"/>
<rect x="120" y="229" width="2" height="1" fill="#004C08"/>
<rect x="118" y="207" width="1" height="1" fill="#00D016"/>
<rect x="105" y="207" width="1" height="1" fill="#00D016"/>
<rect x="104" y="228" width="1" height="2" fill="#004C08"/>
<rect x="103" y="229" width="1" height="1" fill="#004C08"/>
<rect x="96" y="229" width="3" height="1" fill="#004C08"/>
<rect x="96" y="228" width="1" height="1" fill="#004C08"/>
<rect x="119" y="189" width="1" height="1" fill="#00D016"/>
<rect x="104" y="189" width="1" height="1" fill="#00D016"/>
<rect x="120" y="189" width="2" height="1" fill="#00D016"/>
<rect x="103" y="189" width="1" height="1" fill="#00D016"/>
<rect x="48" y="187" width="8" height="43" fill="#00D016"/>
<rect x="55" y="192" width="9" height="8" fill="#00D016"/>
<rect x="64" y="200" width="8" height="8" fill="#00D016"/>
<rect width="8" height="43" transform="matrix(-1 0 0 1 88 187)" fill="#00D016"/>
<rect width="9" height="8" transform="matrix(-1 0 0 1 81 192)" fill="#00D016"/>
<rect width="8" height="8" transform="matrix(-1 0 0 1 72 200)" fill="#00D016"/>
<rect x="152" y="200" width="8" height="16" fill="#00D016"/>
<rect x="144" y="192" width="8" height="8" fill="#00D016"/>
<rect x="160" y="216" width="8" height="8" fill="#00D016"/>
<rect x="136" y="187" width="8" height="43" fill="#00D016"/>
<rect x="168" y="187" width="8" height="43" fill="#00D016"/>
<rect x="54" y="187" width="2" height="1" fill="#004C08"/>
<rect x="55" y="188" width="1" height="1" fill="#004C08"/>
<rect width="2" height="1" transform="matrix(-1 0 0 1 50 187)" fill="#004C08"/>
<rect width="1" height="1" transform="matrix(-1 0 0 1 49 188)" fill="#004C08"/>
<rect x="66" y="208" width="2" height="1" transform="rotate(-180 66 208)" fill="#004C08"/>
<rect x="65" y="207" width="1" height="1" transform="rotate(-180 65 207)" fill="#004C08"/>
<rect width="2" height="1" transform="matrix(1 0 0 -1 70 208)" fill="#004C08"/>
<rect width="1" height="1" transform="matrix(1 0 0 -1 71 207)" fill="#004C08"/>
<rect x="62" y="192" width="2" height="1" fill="#004C08"/>
<rect x="63" y="193" width="1" height="1" fill="#004C08"/>
<rect width="2" height="1" transform="matrix(-1 0 0 1 74 192)" fill="#004C08"/>
<rect width="1" height="1" transform="matrix(-1 0 0 1 73 193)" fill="#004C08"/>
<rect width="2" height="1" transform="matrix(-1 0 0 1 82 187)" fill="#004C08"/>
<rect width="1" height="1" transform="matrix(-1 0 0 1 81 188)" fill="#004C08"/>
<rect x="86" y="187" width="2" height="1" fill="#004C08"/>
<rect x="87" y="188" width="1" height="1" fill="#004C08"/>
<rect x="79" y="200" width="1" height="1" fill="#00D016"/>
<rect x="71" y="199" width="1" height="1" fill="#00D016"/>
<rect x="64" y="199" width="1" height="1" fill="#00D016"/>
<rect x="79" y="191" width="1" height="1" fill="#00D016"/>
<rect x="56" y="191" width="1" height="1" fill="#00D016"/>
<rect x="56" y="200" width="1" height="1" fill="#00D016"/>
<rect x="87" y="228" width="1" height="2" fill="#004C08"/>
<rect x="86" y="229" width="1" height="1" fill="#004C08"/>
<rect x="80" y="228" width="1" height="2" fill="#004C08"/>
<rect x="81" y="229" width="1" height="1" fill="#004C08"/>
<rect x="55" y="228" width="1" height="1" fill="#004C08"/>
<rect x="54" y="229" width="2" height="1" fill="#004C08"/>
<rect x="48" y="228" width="1" height="2" fill="#004C08"/>
<rect x="49" y="229" width="1" height="1" fill="#004C08"/>
<rect x="63" y="200" width="1" height="1" fill="#00D016"/>
<rect x="72" y="200" width="1" height="1" fill="#00D016"/>
<rect x="150" y="192" width="2" height="1" fill="#004C08"/>
<rect x="151" y="193" width="1" height="1" fill="#004C08"/>
<rect x="174" y="187" width="2" height="1" fill="#004C08"/>
<rect x="175" y="188" width="1" height="1" fill="#004C08"/>
<rect width="2" height="1" transform="matrix(-1 0 0 1 170 187)" fill="#004C08"/>
<rect width="1" height="1" transform="matrix(-1 0 0 1 169 188)" fill="#004C08"/>
<rect x="154" y="200" width="2" height="1" transform="rotate(-180 154 200)" fill="#00D016"/>
<rect x="153" y="199" width="1" height="1" transform="rotate(-180 153 199)" fill="#00D016"/>
<rect x="150" y="200" width="2" height="1" fill="#00D016"/>
<rect x="151" y="201" width="1" height="1" fill="#00D016"/>
<rect x="162" y="216" width="2" height="1" transform="rotate(-180 162 216)" fill="#00D016"/>
<rect x="161" y="215" width="1" height="1" transform="rotate(-180 161 215)" fill="#00D016"/>
<rect x="158" y="216" width="2" height="1" fill="#00D016"/>
<rect x="159" y="217" width="1" height="1" fill="#00D016"/>
<rect x="158" y="200" width="2" height="1" fill="#004C08"/>
<rect x="159" y="201" width="1" height="1" fill="#004C08"/>
<rect x="154" y="216" width="2" height="1" transform="rotate(-180 154 216)" fill="#004C08"/>
<rect x="153" y="215" width="1" height="1" transform="rotate(-180 153 215)" fill="#004C08"/>
<rect x="162" y="224" width="2" height="1" transform="rotate(-180 162 224)" fill="#004C08"/>
<rect x="161" y="223" width="1" height="1" transform="rotate(-180 161 223)" fill="#004C08"/>
<rect width="2" height="1" transform="matrix(1 0 0 -1 166 216)" fill="#00D016"/>
<rect width="1" height="1" transform="matrix(1 0 0 -1 167 215)" fill="#00D016"/>
<rect x="166" y="224" width="2" height="1" fill="#00D016"/>
<rect x="167" y="225" width="1" height="1" fill="#00D016"/>
<rect x="170" y="230" width="2" height="1" transform="rotate(-180 170 230)" fill="#004C08"/>
<rect x="169" y="229" width="1" height="1" transform="rotate(-180 169 229)" fill="#004C08"/>
<rect width="2" height="1" transform="matrix(1 0 0 -1 174 230)" fill="#004C08"/>
<rect width="1" height="1" transform="matrix(1 0 0 -1 175 229)" fill="#004C08"/>
<rect x="142" y="187" width="2" height="1" fill="#004C08"/>
<rect x="143" y="188" width="1" height="1" fill="#004C08"/>
<rect width="2" height="1" transform="matrix(-1 0 0 1 138 187)" fill="#004C08"/>
<rect width="1" height="1" transform="matrix(-1 0 0 1 137 188)" fill="#004C08"/>
<rect x="138" y="230" width="2" height="1" transform="rotate(-180 138 230)" fill="#004C08"/>
<rect x="137" y="229" width="1" height="1" transform="rotate(-180 137 229)" fill="#004C08"/>
<rect width="2" height="1" transform="matrix(1 0 0 -1 142 230)" fill="#004C08"/>
<rect width="1" height="1" transform="matrix(1 0 0 -1 143 229)" fill="#004C08"/>
</svg>
