<svg width="224" height="248" viewBox="0 0 224 248" fill="none" xmlns="http://www.w3.org/2000/svg">
<rect width="224" height="248" fill="#004C08"/>
<rect x="182" y="76" width="2" height="32" fill="#00D016"/>
<rect x="181" y="77" width="2" height="30" fill="#00D016"/>
<rect x="180" y="78" width="2" height="28" fill="#00D016"/>
<rect x="184" y="104" width="40" height="4" fill="#00D016"/>
<rect x="184" y="76" width="36" height="4" fill="#00D016"/>
<rect x="219" y="75" width="3" height="4" fill="#00D016"/>
<rect x="222" y="75" width="1" height="3" fill="#00D016"/>
<rect x="220" y="4" width="4" height="72" fill="#00D016"/>
<rect x="219" y="1" width="3" height="4" fill="#00D016"/>
<rect x="222" y="2" width="1" height="2" fill="#00D016"/>
<rect x="4" width="216" height="4" fill="#00D016"/>
<rect x="2" y="1" width="3" height="4" fill="#00D016"/>
<rect x="1" y="2" width="3" height="4" fill="#00D016"/>
<rect y="4" width="4" height="72" fill="#00D016"/>
<rect x="1" y="75" width="4" height="3" fill="#00D016"/>
<rect x="2" y="77" width="3" height="2" fill="#00D016"/>
<rect x="4" y="76" width="38" height="4" fill="#00D016"/>
<rect x="40" y="77" width="3" height="3" fill="#00D016"/>
<rect x="40" y="78" width="4" height="28" fill="#00D016"/>
<rect x="40" y="106" width="3" height="1" fill="#00D016"/>
<rect x="40" y="107" width="2" height="1" fill="#00D016"/>
<rect y="104" width="40" height="4" fill="#00D016"/>
<rect y="124" width="42" height="4" fill="#00D016"/>
<rect x="42" y="125" width="1" height="3" fill="#00D016"/>
<rect x="40" y="126" width="4" height="28" fill="#00D016"/>
<rect x="40" y="154" width="3" height="1" fill="#00D016"/>
<rect x="40" y="155" width="2" height="1" fill="#00D016"/>
<rect x="4" y="152" width="36" height="4" fill="#00D016"/>
<rect x="2" y="153" width="3" height="4" fill="#00D016"/>
<rect x="1" y="154" width="1" height="3" fill="#00D016"/>
<rect y="156" width="4" height="88" fill="#00D016"/>
<rect x="1" y="243" width="4" height="3" fill="#00D016"/>
<rect x="2" y="245" width="3" height="2" fill="#00D016"/>
<rect x="4" y="244" width="216" height="4" fill="#00D016"/>
<rect x="219" y="243" width="3" height="4" fill="#00D016"/>
<rect x="222" y="243" width="1" height="3" fill="#00D016"/>
<rect x="220" y="156" width="4" height="88" fill="#00D016"/>
<rect x="219" y="154" width="4" height="3" fill="#00D016"/>
<rect x="220" y="153" width="2" height="1" fill="#00D016"/>
<rect x="182" y="152" width="38" height="4" fill="#00D016"/>
<rect x="181" y="154" width="3" height="1" fill="#00D016"/>
<rect x="180" y="126" width="4" height="28" fill="#00D016"/>
<rect x="183" y="124" width="3" height="4" fill="#00D016"/>
<rect x="181" y="125" width="2" height="1" fill="#00D016"/>
<rect x="182" y="124" width="1" height="1" fill="#00D016"/>
<rect x="186" y="124" width="38" height="4" fill="#00D016"/>
<rect x="182" y="20" width="20" height="16" fill="#00D016"/>
<rect x="202" y="21" width="1" height="14" fill="#00D016"/>
<rect x="203" y="22" width="1" height="12" fill="#00D016"/>
<rect x="181" y="21" width="1" height="14" fill="#00D016"/>
<rect x="180" y="22" width="1" height="11" fill="#00D016"/>
<rect x="180" y="54" width="1" height="4" fill="#00D016"/>
<rect x="181" y="53" width="1" height="6" fill="#00D016"/>
<rect x="182" y="52" width="20" height="8" fill="#00D016"/>
<rect x="202" y="53" width="1" height="6" fill="#00D016"/>
<rect x="203" y="54" width="1" height="4" fill="#00D016"/>
<rect x="163" y="22" width="1" height="12" fill="#00D016"/>
<rect x="162" y="21" width="1" height="14" fill="#00D016"/>
<rect x="132" y="22" width="1" height="12" fill="#00D016"/>
<rect x="133" y="21" width="1" height="14" fill="#00D016"/>
<rect x="134" y="20" width="28" height="16" fill="#00D016"/>
<rect x="110" y="4" width="4" height="32" fill="#00D016"/>
<rect x="109" y="4" width="1" height="31" fill="#00D016"/>
<rect x="107" y="4" width="10" height="1" fill="#00D016"/>
<rect x="114" y="5" width="1" height="30" fill="#00D016"/>
<rect x="115" y="5" width="1" height="29" fill="#00D016"/>
<rect x="108" y="5" width="1" height="29" fill="#00D016"/>
<rect x="62" y="20" width="28" height="16" fill="#00D016"/>
<rect x="90" y="21" width="1" height="14" fill="#00D016"/>
<rect x="91" y="22" width="1" height="12" fill="#00D016"/>
<rect x="61" y="21" width="1" height="14" fill="#00D016"/>
<rect x="60" y="22" width="1" height="12" fill="#00D016"/>
<rect x="22" y="20" width="20" height="16" fill="#00D016"/>
<rect x="42" y="21" width="1" height="14" fill="#00D016"/>
<rect x="43" y="22" width="1" height="12" fill="#00D016"/>
<rect x="21" y="21" width="1" height="14" fill="#00D016"/>
<rect x="20" y="22" width="1" height="12" fill="#00D016"/>
<rect x="20" y="54" width="1" height="4" fill="#00D016"/>
<rect x="21" y="54" width="1" height="5" fill="#00D016"/>
<rect x="22" y="52" width="1" height="8" fill="#00D016"/>
<rect x="21" y="53" width="1" height="1" fill="#00D016"/>
<rect x="23" y="52" width="19" height="8" fill="#00D016"/>
<rect x="42" y="53" width="1" height="6" fill="#00D016"/>
<rect x="43" y="54" width="1" height="4" fill="#00D016"/>
<rect x="60" y="54" width="8" height="52" fill="#00D016"/>
<rect x="61" y="106" width="6" height="1" fill="#00D016"/>
<rect x="62" y="107" width="4" height="1" fill="#00D016"/>
<rect x="61" y="53" width="6" height="1" fill="#00D016"/>
<rect x="62" y="52" width="4" height="1" fill="#00D016"/>
<rect x="68" y="75" width="1" height="10" fill="#00D016"/>
<rect x="69" y="76" width="21" height="8" fill="#00D016"/>
<rect x="90" y="77" width="1" height="6" fill="#00D016"/>
<rect x="91" y="78" width="1" height="4" fill="#00D016"/>
<rect x="86" y="52" width="52" height="8" fill="#00D016"/>
<rect x="138" y="53" width="1" height="6" fill="#00D016"/>
<rect x="139" y="54" width="1" height="4" fill="#00D016"/>
<rect x="107" y="60" width="10" height="1" fill="#00D016"/>
<rect x="115" y="61" width="1" height="21" fill="#00D016"/>
<rect x="114" y="59" width="1" height="24" fill="#00D016"/>
<rect x="110" y="60" width="4" height="24" fill="#00D016"/>
<rect x="108" y="61" width="2" height="21" fill="#00D016"/>
<rect x="109" y="82" width="1" height="1" fill="#00D016"/>
<rect x="134" y="76" width="30" height="8" fill="#00D016"/>
<rect x="133" y="77" width="1" height="6" fill="#00D016"/>
<rect x="132" y="78" width="1" height="4" fill="#00D016"/>
<rect x="158" y="52" width="4" height="56" fill="#00D016"/>
<rect x="162" y="54" width="2" height="52" fill="#00D016"/>
<rect x="157" y="53" width="6" height="1" fill="#00D016"/>
<rect x="156" y="54" width="2" height="52" fill="#00D016"/>
<rect x="157" y="106" width="6" height="1" fill="#00D016"/>
<rect x="155" y="84" width="1" height="1" fill="#00D016"/>
<rect x="155" y="75" width="1" height="1" fill="#00D016"/>
<rect x="85" y="53" width="1" height="6" fill="#00D016"/>
<rect x="84" y="54" width="1" height="4" fill="#00D016"/>
<rect x="202" y="221" width="1" height="6" fill="#00D016"/>
<rect x="203" y="222" width="1" height="4" fill="#00D016"/>
<rect x="134" y="220" width="68" height="8" fill="#00D016"/>
<rect x="133" y="221" width="1" height="6" fill="#00D016"/>
<rect x="132" y="222" width="1" height="4" fill="#00D016"/>
<rect x="155" y="219" width="10" height="1" fill="#00D016"/>
<rect x="156" y="198" width="8" height="21" fill="#00D016"/>
<rect x="157" y="197" width="6" height="1" fill="#00D016"/>
<rect x="158" y="196" width="4" height="1" fill="#00D016"/>
<rect width="1" height="6" transform="matrix(-1 0 0 1 22 221)" fill="#00D016"/>
<rect width="1" height="4" transform="matrix(-1 0 0 1 21 222)" fill="#00D016"/>
<rect width="68" height="8" transform="matrix(-1 0 0 1 90 220)" fill="#00D016"/>
<rect width="1" height="6" transform="matrix(-1 0 0 1 91 221)" fill="#00D016"/>
<rect width="1" height="4" transform="matrix(-1 0 0 1 92 222)" fill="#00D016"/>
<rect width="10" height="1" transform="matrix(-1 0 0 1 69 219)" fill="#00D016"/>
<rect width="8" height="21" transform="matrix(-1 0 0 1 68 198)" fill="#00D016"/>
<rect width="6" height="1" transform="matrix(-1 0 0 1 67 197)" fill="#00D016"/>
<rect width="4" height="1" transform="matrix(-1 0 0 1 66 196)" fill="#00D016"/>
<rect width="1" height="10" transform="matrix(-1 0 0 1 5 195)" fill="#00D016"/>
<rect width="13" height="8" transform="matrix(-1 0 0 1 18 196)" fill="#00D016"/>
<rect width="1" height="6" transform="matrix(-1 0 0 1 19 197)" fill="#00D016"/>
<rect width="1" height="4" transform="matrix(-1 0 0 1 20 198)" fill="#00D016"/>
<rect x="206" y="196" width="13" height="8" fill="#00D016"/>
<rect x="110" y="196" width="4" height="32" fill="#00D016"/>
<rect x="109" y="196" width="6" height="31" fill="#00D016"/>
<rect x="108" y="196" width="1" height="30" fill="#00D016"/>
<rect x="115" y="196" width="1" height="30" fill="#00D016"/>
<rect x="84" y="198" width="56" height="4" fill="#00D016"/>
<rect x="85" y="197" width="54" height="6" fill="#00D016"/>
<rect x="86" y="196" width="52" height="8" fill="#00D016"/>
<rect x="110" y="148" width="4" height="32" fill="#00D016"/>
<rect x="109" y="148" width="6" height="31" fill="#00D016"/>
<rect x="108" y="148" width="1" height="30" fill="#00D016"/>
<rect x="115" y="148" width="1" height="30" fill="#00D016"/>
<rect x="84" y="150" width="56" height="4" fill="#00D016"/>
<rect x="85" y="149" width="54" height="6" fill="#00D016"/>
<rect x="86" y="148" width="52" height="8" fill="#00D016"/>
<rect x="107" y="204" width="10" height="1" fill="#00D016"/>
<rect x="107" y="156" width="10" height="1" fill="#00D016"/>
<rect x="219" y="195" width="1" height="10" fill="#00D016"/>
<rect x="205" y="197" width="1" height="6" fill="#00D016"/>
<rect x="204" y="198" width="1" height="4" fill="#00D016"/>
<rect x="182" y="172" width="4" height="32" fill="#00D016"/>
<rect x="181" y="173" width="6" height="30" fill="#00D016"/>
<rect x="180" y="174" width="1" height="28" fill="#00D016"/>
<rect x="186" y="172" width="16" height="8" fill="#00D016"/>
<rect x="202" y="173" width="1" height="6" fill="#00D016"/>
<rect x="203" y="174" width="1" height="4" fill="#00D016"/>
<rect x="187" y="180" width="2" height="1" fill="#00D016"/>
<rect x="187" y="181" width="1" height="21" fill="#00D016"/>
<rect width="1" height="10" transform="matrix(-1 0 0 1 5 195)" fill="#00D016"/>
<rect width="1" height="6" transform="matrix(-1 0 0 1 19 197)" fill="#00D016"/>
<rect width="1" height="4" transform="matrix(-1 0 0 1 20 198)" fill="#00D016"/>
<rect width="4" height="32" transform="matrix(-1 0 0 1 42 172)" fill="#00D016"/>
<rect width="6" height="30" transform="matrix(-1 0 0 1 43 173)" fill="#00D016"/>
<rect width="1" height="28" transform="matrix(-1 0 0 1 44 174)" fill="#00D016"/>
<rect width="16" height="8" transform="matrix(-1 0 0 1 38 172)" fill="#00D016"/>
<rect width="1" height="6" transform="matrix(-1 0 0 1 22 173)" fill="#00D016"/>
<rect width="1" height="4" transform="matrix(-1 0 0 1 21 174)" fill="#00D016"/>
<rect width="2" height="1" transform="matrix(-1 0 0 1 37 180)" fill="#00D016"/>
<rect width="1" height="21" transform="matrix(-1 0 0 1 37 181)" fill="#00D016"/>
<rect x="134" y="172" width="28" height="8" fill="#00D016"/>
<rect x="162" y="173" width="1" height="6" fill="#00D016"/>
<rect x="163" y="174" width="1" height="4" fill="#00D016"/>
<rect x="133" y="173" width="1" height="6" fill="#00D016"/>
<rect x="132" y="174" width="1" height="4" fill="#00D016"/>
<rect x="62" y="172" width="28" height="8" fill="#00D016"/>
<rect x="90" y="173" width="1" height="6" fill="#00D016"/>
<rect x="91" y="174" width="1" height="4" fill="#00D016"/>
<rect x="61" y="173" width="1" height="6" fill="#00D016"/>
<rect x="60" y="174" width="1" height="4" fill="#00D016"/>
<rect x="68" y="126" width="28" height="8" transform="rotate(90 68 126)" fill="#00D016"/>
<rect x="67" y="154" width="1" height="6" transform="rotate(90 67 154)" fill="#00D016"/>
<rect x="66" y="155" width="1" height="4" transform="rotate(90 66 155)" fill="#00D016"/>
<rect x="67" y="125" width="1" height="6" transform="rotate(90 67 125)" fill="#00D016"/>
<rect x="66" y="124" width="1" height="4" transform="rotate(90 66 124)" fill="#00D016"/>
<rect x="164" y="126" width="28" height="8" transform="rotate(90 164 126)" fill="#00D016"/>
<rect x="163" y="154" width="1" height="6" transform="rotate(90 163 154)" fill="#00D016"/>
<rect x="162" y="155" width="1" height="4" transform="rotate(90 162 155)" fill="#00D016"/>
<rect x="163" y="125" width="1" height="6" transform="rotate(90 163 125)" fill="#00D016"/>
<rect x="162" y="124" width="1" height="4" transform="rotate(90 162 124)" fill="#00D016"/>
<rect x="136" y="100" width="4" height="32" fill="#00D016"/>
<rect x="120" y="100" width="16" height="4" fill="#00D016"/>
<rect x="84" y="100" width="20" height="4" fill="#00D016"/>
<rect x="84" y="104" width="4" height="28" fill="#00D016"/>
<rect x="88" y="128" width="48" height="4" fill="#00D016"/>
<rect x="104" y="101" width="16" height="2" fill="#0CC51F"/>
</svg>
