<svg width="32" height="17" viewBox="0 0 32 17" fill="none" xmlns="http://www.w3.org/2000/svg">
<rect x="29.9609" y="2.73633" width="6.5" height="3.42105" transform="rotate(90 29.9609 2.73633)" fill="#007AE0"/>
<rect x="29.2769" y="9.23633" width="1.36842" height="2.05263" transform="rotate(90 29.2769 9.23633)" fill="#007AE0"/>
<rect x="28.5933" y="1.36719" width="1.36842" height="1.02632" transform="rotate(90 28.5933 1.36719)" fill="#007AE0"/>
<rect x="27.5654" y="0.683594" width="11.9737" height="7.52632" transform="rotate(90 27.5654 0.683594)" fill="#007AE0"/>
<rect x="20.0396" y="0.341797" width="12.3158" height="0.684211" transform="rotate(90 20.0396 0.341797)" fill="black"/>
<rect x="20.7231" y="12.6582" width="0.684211" height="0.684211" transform="rotate(90 20.7231 12.6582)" fill="black"/>
<rect x="21.751" y="13.3418" width="0.684211" height="1.02632" transform="rotate(90 21.751 13.3418)" fill="black"/>
<rect x="25.1699" y="14.0273" width="0.684211" height="3.42105" transform="rotate(90 25.1699 14.0273)" fill="black"/>
<rect x="26.1978" y="11.9727" width="1.36842" height="0.684211" transform="rotate(90 26.1978 11.9727)" fill="black"/>
<rect x="27.5669" y="11.9727" width="0.684211" height="1.36842" transform="rotate(90 27.5669 11.9727)" fill="black"/>
<rect x="28.251" y="11.2891" width="0.684211" height="0.684211" transform="rotate(90 28.251 11.2891)" fill="black"/>
<rect x="28.9346" y="10.6055" width="0.684211" height="0.684211" transform="rotate(90 28.9346 10.6055)" fill="black"/>
<rect x="29.6187" y="9.92188" width="0.684211" height="0.684211" transform="rotate(90 29.6187 9.92188)" fill="black"/>
<rect x="29.9604" y="2.73633" width="7.18421" height="0.684211" transform="rotate(90 29.9604 2.73633)" fill="black"/>
<rect x="29.2764" y="2.05273" width="0.684211" height="0.684211" transform="rotate(90 29.2764 2.05273)" fill="black"/>
<rect x="28.5928" y="1.36914" width="0.684211" height="0.684211" transform="rotate(90 28.5928 1.36914)" fill="black"/>
<rect x="27.9072" y="0.683594" width="0.684211" height="1.71053" transform="rotate(90 27.9072 0.683594)" fill="black"/>
<rect x="26.1978" width="0.684211" height="6.15789" transform="rotate(90 26.1978 0)" fill="black"/>
<rect x="26.1973" y="10.6055" width="3.76316" height="5.47368" transform="rotate(90 26.1973 10.6055)" fill="black"/>
<rect x="25.5132" y="9.92188" width="3.76316" height="4.10526" transform="rotate(90 25.5132 9.92188)" fill="black"/>
<rect x="25.5132" y="11.6328" width="3.76316" height="4.10526" transform="rotate(90 25.5132 11.6328)" fill="black"/>
<rect x="24.8286" y="10.9473" width="1.36842" height="1.36842" transform="rotate(90 24.8286 10.9473)" fill="white"/>
<rect x="24.8286" y="13" width="1.36842" height="1.36842" transform="rotate(90 24.8286 13)" fill="white"/>
<rect x="24.8286" y="11.6309" width="0.684211" height="0.684211" transform="rotate(90 24.8286 11.6309)" fill="#00BB14"/>
<rect x="24.8286" y="13.6836" width="0.684211" height="0.684211" transform="rotate(90 24.8286 13.6836)" fill="#00BB14"/>
<rect x="28.2495" y="13.3418" width="0.684211" height="3.07895" transform="rotate(90 28.2495 13.3418)" fill="black"/>
<rect x="28.9351" y="12.6582" width="0.684211" height="0.684211" transform="rotate(90 28.9351 12.6582)" fill="black"/>
<rect x="29.6187" y="11.9727" width="0.684211" height="0.684211" transform="rotate(90 29.6187 11.9727)" fill="black"/>
<rect x="30.3027" y="10.9473" width="1.02632" height="0.684211" transform="rotate(90 30.3027 10.9473)" fill="black"/>
<rect x="28.2495" y="10.6055" width="0.684211" height="3.07895" transform="rotate(90 28.2495 10.6055)" fill="black"/>
<rect x="28.9351" y="9.91992" width="0.684211" height="0.684211" transform="rotate(90 28.9351 9.91992)" fill="black"/>
<rect x="29.6187" y="9.23633" width="0.684211" height="0.684211" transform="rotate(90 29.6187 9.23633)" fill="black"/>
<rect x="30.3027" y="8.21094" width="1.02632" height="0.684211" transform="rotate(90 30.3027 8.21094)" fill="black"/>
<rect x="21.7495" y="1.71094" width="1.02632" height="1.02632" transform="rotate(90 21.7495 1.71094)" fill="black"/>
<rect x="22.7769" y="6.1582" width="1.36842" height="1.71053" transform="rotate(90 22.7769 6.1582)" fill="black"/>
<rect x="25.856" y="7.52539" width="1.71053" height="2.39474" transform="rotate(90 25.856 7.52539)" fill="black"/>
<rect x="21.7495" y="8.55273" width="0.684211" height="0.684211" transform="rotate(90 21.7495 8.55273)" fill="black"/>
<rect x="24.1445" y="2.39453" width="1.71053" height="1.71053" transform="rotate(90 24.1445 2.39453)" fill="black"/>
<rect x="25.856" y="4.44727" width="1.71053" height="1.71053" transform="rotate(90 25.856 4.44727)" fill="black"/>
<rect x="27.9092" y="2.39453" width="2.05263" height="1.36842" transform="rotate(90 27.9092 2.39453)" fill="black"/>
<rect x="27.9092" y="6.8418" width="2.39474" height="1.36842" transform="rotate(90 27.9092 6.8418)" fill="black"/>
<rect x="28.9351" y="5.13086" width="1.02632" height="1.02632" transform="rotate(90 28.9351 5.13086)" fill="black"/>
<rect x="22.4351" y="11.2891" width="2.73684" height="0.684211" transform="rotate(90 22.4351 11.2891)" fill="white"/>
<rect x="22.7769" y="10.9473" width="0.684211" height="0.342105" transform="rotate(90 22.7769 10.9473)" fill="white"/>
<rect x="19.356" y="2.73633" width="0.684211" height="0.684211" transform="rotate(90 19.356 2.73633)" fill="black"/>
<rect x="18.6704" y="2.05273" width="0.684211" height="0.684211" transform="rotate(90 18.6704 2.05273)" fill="black"/>
<rect x="17.9868" y="1.36719" width="0.684211" height="0.684211" transform="rotate(90 17.9868 1.36719)" fill="black"/>
<rect x="18.6704" y="4.10547" width="0.684211" height="0.684211" transform="rotate(90 18.6704 4.10547)" fill="black"/>
<rect x="19.356" y="8.21094" width="0.684211" height="0.684211" transform="rotate(90 19.356 8.21094)" fill="black"/>
<rect x="18.6704" y="7.52539" width="0.684211" height="0.684211" transform="rotate(90 18.6704 7.52539)" fill="black"/>
<rect x="17.9868" y="6.8418" width="0.684211" height="0.684211" transform="rotate(90 17.9868 6.8418)" fill="black"/>
<rect x="19.356" y="5.47266" width="0.684211" height="0.684211" transform="rotate(90 19.356 5.47266)" fill="black"/>
<rect x="18.6704" y="4.78906" width="0.684211" height="0.684211" transform="rotate(90 18.6704 4.78906)" fill="black"/>
<rect x="19.356" y="10.9473" width="0.684211" height="0.684211" transform="rotate(90 19.356 10.9473)" fill="black"/>
<rect x="18.6704" y="10.2637" width="0.684211" height="0.684211" transform="rotate(90 18.6704 10.2637)" fill="black"/>
<rect x="18.6704" y="9.57812" width="0.684211" height="0.684211" transform="rotate(90 18.6704 9.57812)" fill="black"/>
<rect x="14.9609" y="3.73633" width="6.5" height="3.42105" transform="rotate(90 14.9609 3.73633)" fill="#007AE0"/>
<rect x="14.2769" y="10.2363" width="1.36842" height="2.05263" transform="rotate(90 14.2769 10.2363)" fill="#007AE0"/>
<rect x="13.5933" y="2.36719" width="1.36842" height="1.02632" transform="rotate(90 13.5933 2.36719)" fill="#007AE0"/>
<rect x="12.5654" y="1.68359" width="11.9737" height="7.52632" transform="rotate(90 12.5654 1.68359)" fill="#007AE0"/>
<rect x="5.03955" y="1.3418" width="12.3158" height="0.684211" transform="rotate(90 5.03955 1.3418)" fill="black"/>
<rect x="5.72314" y="13.6582" width="0.684211" height="0.684211" transform="rotate(90 5.72314 13.6582)" fill="black"/>
<rect x="6.75098" y="14.3418" width="0.684211" height="1.02632" transform="rotate(90 6.75098 14.3418)" fill="black"/>
<rect x="10.1699" y="15.0273" width="0.684211" height="3.42105" transform="rotate(90 10.1699 15.0273)" fill="black"/>
<rect x="11.1978" y="12.9727" width="1.36842" height="0.684211" transform="rotate(90 11.1978 12.9727)" fill="black"/>
<rect x="12.5669" y="12.9727" width="0.684211" height="1.36842" transform="rotate(90 12.5669 12.9727)" fill="black"/>
<rect x="13.251" y="12.2891" width="0.684211" height="0.684211" transform="rotate(90 13.251 12.2891)" fill="black"/>
<rect x="13.9346" y="11.6055" width="0.684211" height="0.684211" transform="rotate(90 13.9346 11.6055)" fill="black"/>
<rect x="14.6187" y="10.9219" width="0.684211" height="0.684211" transform="rotate(90 14.6187 10.9219)" fill="black"/>
<rect x="14.9604" y="3.73633" width="7.18421" height="0.684211" transform="rotate(90 14.9604 3.73633)" fill="black"/>
<rect x="14.2764" y="3.05273" width="0.684211" height="0.684211" transform="rotate(90 14.2764 3.05273)" fill="black"/>
<rect x="13.5928" y="2.36914" width="0.684211" height="0.684211" transform="rotate(90 13.5928 2.36914)" fill="black"/>
<rect x="12.9072" y="1.68359" width="0.684211" height="1.71053" transform="rotate(90 12.9072 1.68359)" fill="black"/>
<rect x="11.1978" y="1" width="0.684211" height="6.15789" transform="rotate(90 11.1978 1)" fill="black"/>
<rect x="11.1973" y="11.6055" width="3.76316" height="5.47368" transform="rotate(90 11.1973 11.6055)" fill="black"/>
<rect x="10.5132" y="10.9219" width="3.76316" height="4.10526" transform="rotate(90 10.5132 10.9219)" fill="black"/>
<rect x="10.5132" y="12.6328" width="3.76316" height="4.10526" transform="rotate(90 10.5132 12.6328)" fill="black"/>
<rect x="9.82861" y="11.9473" width="1.36842" height="1.36842" transform="rotate(90 9.82861 11.9473)" fill="white"/>
<rect x="9.82861" y="14" width="1.36842" height="1.36842" transform="rotate(90 9.82861 14)" fill="white"/>
<rect x="9.82861" y="12.6309" width="0.684211" height="0.684211" transform="rotate(90 9.82861 12.6309)" fill="#00BB14"/>
<rect x="9.82861" y="14.6836" width="0.684211" height="0.684211" transform="rotate(90 9.82861 14.6836)" fill="#00BB14"/>
<rect x="13.2495" y="14.3418" width="0.684211" height="3.07895" transform="rotate(90 13.2495 14.3418)" fill="black"/>
<rect x="13.9351" y="13.6582" width="0.684211" height="0.684211" transform="rotate(90 13.9351 13.6582)" fill="black"/>
<rect x="14.6187" y="12.9727" width="0.684211" height="0.684211" transform="rotate(90 14.6187 12.9727)" fill="black"/>
<rect x="15.3027" y="11.9473" width="1.02632" height="0.684211" transform="rotate(90 15.3027 11.9473)" fill="black"/>
<rect x="13.2495" y="11.6055" width="0.684211" height="3.07895" transform="rotate(90 13.2495 11.6055)" fill="black"/>
<rect x="13.9351" y="10.9199" width="0.684211" height="0.684211" transform="rotate(90 13.9351 10.9199)" fill="black"/>
<rect x="14.6187" y="10.2363" width="0.684211" height="0.684211" transform="rotate(90 14.6187 10.2363)" fill="black"/>
<rect x="15.3027" y="9.21094" width="1.02632" height="0.684211" transform="rotate(90 15.3027 9.21094)" fill="black"/>
<rect x="6.74951" y="2.71094" width="1.02632" height="1.02632" transform="rotate(90 6.74951 2.71094)" fill="black"/>
<rect x="7.77686" y="7.1582" width="1.36842" height="1.71053" transform="rotate(90 7.77686 7.1582)" fill="black"/>
<rect x="10.856" y="8.52539" width="1.71053" height="2.39474" transform="rotate(90 10.856 8.52539)" fill="black"/>
<rect x="6.74951" y="9.55273" width="0.684211" height="0.684211" transform="rotate(90 6.74951 9.55273)" fill="black"/>
<rect x="9.14453" y="3.39453" width="1.71053" height="1.71053" transform="rotate(90 9.14453 3.39453)" fill="black"/>
<rect x="10.856" y="5.44727" width="1.71053" height="1.71053" transform="rotate(90 10.856 5.44727)" fill="black"/>
<rect x="12.9092" y="3.39453" width="2.05263" height="1.36842" transform="rotate(90 12.9092 3.39453)" fill="black"/>
<rect x="12.9092" y="7.8418" width="2.39474" height="1.36842" transform="rotate(90 12.9092 7.8418)" fill="black"/>
<rect x="13.9351" y="6.13086" width="1.02632" height="1.02632" transform="rotate(90 13.9351 6.13086)" fill="black"/>
<rect x="7.43506" y="12.2891" width="2.73684" height="0.684211" transform="rotate(90 7.43506 12.2891)" fill="white"/>
<rect x="7.77686" y="11.9473" width="0.684211" height="0.342105" transform="rotate(90 7.77686 11.9473)" fill="white"/>
<rect x="4.35596" y="3.73633" width="0.684211" height="0.684211" transform="rotate(90 4.35596 3.73633)" fill="black"/>
<rect x="3.67041" y="3.05273" width="0.684211" height="0.684211" transform="rotate(90 3.67041 3.05273)" fill="black"/>
<rect x="2.98682" y="2.36719" width="0.684211" height="0.684211" transform="rotate(90 2.98682 2.36719)" fill="black"/>
<rect x="3.67041" y="5.10547" width="0.684211" height="0.684211" transform="rotate(90 3.67041 5.10547)" fill="black"/>
<rect x="4.35596" y="9.21094" width="0.684211" height="0.684211" transform="rotate(90 4.35596 9.21094)" fill="black"/>
<rect x="3.67041" y="8.52539" width="0.684211" height="0.684211" transform="rotate(90 3.67041 8.52539)" fill="black"/>
<rect x="2.98682" y="7.8418" width="0.684211" height="0.684211" transform="rotate(90 2.98682 7.8418)" fill="black"/>
<rect x="4.35596" y="6.47266" width="0.684211" height="0.684211" transform="rotate(90 4.35596 6.47266)" fill="black"/>
<rect x="3.67041" y="5.78906" width="0.684211" height="0.684211" transform="rotate(90 3.67041 5.78906)" fill="black"/>
<rect x="4.35596" y="11.9473" width="0.684211" height="0.684211" transform="rotate(90 4.35596 11.9473)" fill="black"/>
<rect x="3.67041" y="11.2637" width="0.684211" height="0.684211" transform="rotate(90 3.67041 11.2637)" fill="black"/>
<rect x="3.67041" y="10.5781" width="0.684211" height="0.684211" transform="rotate(90 3.67041 10.5781)" fill="black"/>
</svg>
