<svg width="15" height="16" viewBox="0 0 15 16" fill="none" xmlns="http://www.w3.org/2000/svg">
<rect width="1" height="1" transform="matrix(-1 0 0 1 8 2)" fill="#00BB14"/>
<rect width="1" height="1" transform="matrix(-1 0 0 1 7 6)" fill="#00BB14"/>
<path fill-rule="evenodd" clip-rule="evenodd" d="M8 2H9V3H8H7V6H8H9V5H10V3H11V4H12V6H13V11H12V13H11V14H10H9V15H6H5H4V14H2V13H1V12H2H3V11H4H5H6V10H9V9H10V8H9V7H8H7H6V6H4H3V5H1V4H2V3H3V4H4V3V2H6H7H8Z" fill="#00BB14"/>
<rect width="2" height="1" transform="matrix(-1 0 0 1 3 11)" fill="#C6C600"/>
<rect width="1" height="1" transform="matrix(-1 0 0 1 10 8)" fill="#C6C600"/>
<rect width="3" height="1" transform="matrix(-1 0 0 1 9 7)" fill="#C6C600"/>
<rect width="3" height="1" transform="matrix(-1 0 0 1 6 6)" fill="#C6C600"/>
<rect width="2" height="1" transform="matrix(-1 0 0 1 3 5)" fill="#C6C600"/>
<rect width="1" height="1" transform="matrix(-1 0 0 1 4 3)" fill="#C6C600"/>
<path fill-rule="evenodd" clip-rule="evenodd" d="M5 8H9V9H6V10H2V9H1V8H4V9H5V8Z" fill="#FF0000"/>
<path fill-rule="evenodd" clip-rule="evenodd" d="M9 3H10V5H9V6H7V5H9V3ZM3 6H2V7H3V6ZM6 7H5V8H6V7ZM1 10H2V11H1V10Z" fill="white"/>
<rect width="2" height="2" transform="matrix(-1 0 0 1 9 3)" fill="black"/>
<rect width="3" height="1" transform="matrix(-1 0 0 1 6 10)" fill="#C6C600"/>
<rect width="3" height="1" transform="matrix(-1 0 0 1 9 9)" fill="#C6C600"/>
</svg>
