<svg width="32" height="16" viewBox="0 0 32 16" fill="none" xmlns="http://www.w3.org/2000/svg">
<rect width="6.5" height="3.42105" transform="matrix(-1 0 0 1 28.7637 2.3418)" fill="#25C844"/>
<rect width="1.36842" height="2.05263" transform="matrix(-1 0 0 1 22.2637 3.02539)" fill="#25C844"/>
<rect width="1.36842" height="1.02632" transform="matrix(-1 0 0 1 30.1318 3.70898)" fill="#25C844"/>
<rect width="11.9737" height="7.52632" transform="matrix(-1 0 0 1 30.8164 4.73633)" fill="#25C844"/>
<rect width="12.3158" height="0.684211" transform="matrix(-1 0 0 1 31.1582 12.2637)" fill="black"/>
<rect width="0.684211" height="0.684211" transform="matrix(-1 0 0 1 18.8418 11.5781)" fill="black"/>
<rect width="0.684211" height="1.02632" transform="matrix(-1 0 0 1 18.1582 10.5508)" fill="black"/>
<rect width="0.684211" height="3.42105" transform="matrix(-1 0 0 1 17.4731 7.13281)" fill="black"/>
<rect width="1.36842" height="0.684211" transform="matrix(-1 0 0 1 19.5269 6.10547)" fill="black"/>
<rect width="0.684211" height="1.36842" transform="matrix(-1 0 0 1 19.5269 4.73438)" fill="black"/>
<rect width="0.684211" height="0.684211" transform="matrix(-1 0 0 1 20.2104 4.05078)" fill="black"/>
<rect width="0.684211" height="0.684211" transform="matrix(-1 0 0 1 20.8945 3.36719)" fill="black"/>
<rect width="0.684211" height="0.684211" transform="matrix(-1 0 0 1 21.5791 2.68359)" fill="black"/>
<rect width="7.18421" height="0.684211" transform="matrix(-1 0 0 1 28.7632 2.3418)" fill="black"/>
<rect width="0.684211" height="0.684211" transform="matrix(-1 0 0 1 29.4478 3.02539)" fill="black"/>
<rect width="0.684211" height="0.684211" transform="matrix(-1 0 0 1 30.1313 3.70898)" fill="black"/>
<rect width="0.684211" height="1.71053" transform="matrix(-1 0 0 1 30.8159 4.39453)" fill="black"/>
<rect width="0.684211" height="6.15789" transform="matrix(-1 0 0 1 31.5 6.10547)" fill="black"/>
<rect width="3.76316" height="5.47368" transform="matrix(-1 0 0 1 20.8945 6.10547)" fill="black"/>
<rect width="3.76316" height="4.10526" transform="matrix(-1 0 0 1 21.5786 6.78906)" fill="black"/>
<rect width="3.76316" height="4.10526" transform="matrix(-1 0 0 1 19.8682 6.78906)" fill="black"/>
<rect width="1.36842" height="1.36842" transform="matrix(-1 0 0 1 20.5527 7.47461)" fill="white"/>
<rect width="1.36842" height="1.36842" transform="matrix(-1 0 0 1 18.5005 7.47461)" fill="white"/>
<rect width="0.684211" height="0.684211" transform="matrix(-1 0 0 1 19.8687 7.47461)" fill="#007AE0"/>
<rect width="0.684211" height="0.684211" transform="matrix(-1 0 0 1 17.8164 7.47461)" fill="#007AE0"/>
<rect width="0.684211" height="3.07895" transform="matrix(-1 0 0 1 18.1582 4.05273)" fill="black"/>
<rect width="0.684211" height="0.684211" transform="matrix(-1 0 0 1 18.8423 3.36719)" fill="black"/>
<rect width="0.684211" height="0.684211" transform="matrix(-1 0 0 1 19.5269 2.68359)" fill="black"/>
<rect width="1.02632" height="0.684211" transform="matrix(-1 0 0 1 20.5527 2)" fill="black"/>
<rect width="0.684211" height="3.07895" transform="matrix(-1 0 0 1 20.8955 4.05273)" fill="black"/>
<rect width="0.684211" height="0.684211" transform="matrix(-1 0 0 1 21.5796 3.36719)" fill="black"/>
<rect width="0.684211" height="0.684211" transform="matrix(-1 0 0 1 22.2637 2.68359)" fill="black"/>
<rect width="1.02632" height="0.684211" transform="matrix(-1 0 0 1 23.2896 2)" fill="black"/>
<rect width="1.02632" height="1.02632" transform="matrix(-1 0 0 1 29.7896 10.5527)" fill="black"/>
<rect width="1.36842" height="1.71053" transform="matrix(-1 0 0 1 25.3423 9.52539)" fill="black"/>
<rect width="1.71053" height="2.39474" transform="matrix(-1 0 0 1 23.9741 6.44727)" fill="black"/>
<rect width="0.684211" height="0.684211" transform="matrix(-1 0 0 1 22.9478 10.5527)" fill="black"/>
<rect width="1.71053" height="1.71053" transform="matrix(-1 0 0 1 29.1055 8.1582)" fill="black"/>
<rect width="1.71053" height="1.71053" transform="matrix(-1 0 0 1 27.0527 6.44727)" fill="black"/>
<rect width="2.05263" height="1.36842" transform="matrix(-1 0 0 1 29.1055 4.39258)" fill="black"/>
<rect width="2.39474" height="1.36842" transform="matrix(-1 0 0 1 24.6582 4.39258)" fill="black"/>
<rect width="1.02632" height="1.02632" transform="matrix(-1 0 0 1 26.3687 3.36719)" fill="black"/>
<rect width="2.73684" height="0.684211" transform="matrix(-1 0 0 1 20.2109 9.86719)" fill="white"/>
<rect width="0.684211" height="0.342105" transform="matrix(-1 0 0 1 20.5527 9.52539)" fill="white"/>
<rect width="0.684211" height="0.684211" transform="matrix(-1 0 0 1 28.7637 12.9473)" fill="black"/>
<rect width="0.684211" height="0.684211" transform="matrix(-1 0 0 1 29.4478 13.6328)" fill="black"/>
<rect width="0.684211" height="0.684211" transform="matrix(-1 0 0 1 30.1318 14.3164)" fill="black"/>
<rect width="0.684211" height="0.684211" transform="matrix(-1 0 0 1 27.3955 13.6328)" fill="black"/>
<rect width="0.684211" height="0.684211" transform="matrix(-1 0 0 1 23.2896 12.9473)" fill="black"/>
<rect width="0.684211" height="0.684211" transform="matrix(-1 0 0 1 23.9741 13.6328)" fill="black"/>
<rect width="0.684211" height="0.684211" transform="matrix(-1 0 0 1 24.6582 14.3164)" fill="black"/>
<rect width="0.684211" height="0.684211" transform="matrix(-1 0 0 1 26.0269 12.9473)" fill="black"/>
<rect width="0.684211" height="0.684211" transform="matrix(-1 0 0 1 26.7109 13.6328)" fill="black"/>
<rect width="0.684211" height="0.684211" transform="matrix(-1 0 0 1 20.5527 12.9473)" fill="black"/>
<rect width="0.684211" height="0.684211" transform="matrix(-1 0 0 1 21.2373 13.6328)" fill="black"/>
<rect width="0.684211" height="0.684211" transform="matrix(-1 0 0 1 21.9214 13.6328)" fill="black"/>
<rect width="6.5" height="3.42105" transform="matrix(-1 0 0 1 12.7637 1.3418)" fill="#25C844"/>
<rect width="1.36842" height="2.05263" transform="matrix(-1 0 0 1 6.26367 2.02539)" fill="#25C844"/>
<rect width="1.36842" height="1.02632" transform="matrix(-1 0 0 1 14.1318 2.70898)" fill="#25C844"/>
<rect width="11.9737" height="7.52632" transform="matrix(-1 0 0 1 14.8164 3.73633)" fill="#25C844"/>
<rect width="12.3158" height="0.684211" transform="matrix(-1 0 0 1 15.1582 11.2637)" fill="black"/>
<rect width="0.684211" height="0.684211" transform="matrix(-1 0 0 1 2.8418 10.5781)" fill="black"/>
<rect width="0.684211" height="1.02632" transform="matrix(-1 0 0 1 2.1582 9.55078)" fill="black"/>
<rect width="0.684211" height="3.42105" transform="matrix(-1 0 0 1 1.47314 6.13281)" fill="black"/>
<rect width="1.36842" height="0.684211" transform="matrix(-1 0 0 1 3.52686 5.10547)" fill="black"/>
<rect width="0.684211" height="1.36842" transform="matrix(-1 0 0 1 3.52686 3.73438)" fill="black"/>
<rect width="0.684211" height="0.684211" transform="matrix(-1 0 0 1 4.21045 3.05078)" fill="black"/>
<rect width="0.684211" height="0.684211" transform="matrix(-1 0 0 1 4.89453 2.36719)" fill="black"/>
<rect width="0.684211" height="0.684211" transform="matrix(-1 0 0 1 5.5791 1.68359)" fill="black"/>
<rect width="7.18421" height="0.684211" transform="matrix(-1 0 0 1 12.7632 1.3418)" fill="black"/>
<rect width="0.684211" height="0.684211" transform="matrix(-1 0 0 1 13.4478 2.02539)" fill="black"/>
<rect width="0.684211" height="0.684211" transform="matrix(-1 0 0 1 14.1313 2.70898)" fill="black"/>
<rect width="0.684211" height="1.71053" transform="matrix(-1 0 0 1 14.8159 3.39453)" fill="black"/>
<rect width="0.684211" height="6.15789" transform="matrix(-1 0 0 1 15.5 5.10547)" fill="black"/>
<rect width="3.76316" height="5.47368" transform="matrix(-1 0 0 1 4.89453 5.10547)" fill="black"/>
<rect width="3.76316" height="4.10526" transform="matrix(-1 0 0 1 5.57861 5.78906)" fill="black"/>
<rect width="3.76316" height="4.10526" transform="matrix(-1 0 0 1 3.86816 5.78906)" fill="black"/>
<rect width="1.36842" height="1.36842" transform="matrix(-1 0 0 1 4.55273 6.47461)" fill="white"/>
<rect width="1.36842" height="1.36842" transform="matrix(-1 0 0 1 2.50049 6.47461)" fill="white"/>
<rect width="0.684211" height="0.684211" transform="matrix(-1 0 0 1 3.86865 6.47461)" fill="#007AE0"/>
<rect width="0.684211" height="0.684211" transform="matrix(-1 0 0 1 1.81641 6.47461)" fill="#007AE0"/>
<rect width="0.684211" height="3.07895" transform="matrix(-1 0 0 1 2.1582 3.05273)" fill="black"/>
<rect width="0.684211" height="0.684211" transform="matrix(-1 0 0 1 2.84229 2.36719)" fill="black"/>
<rect width="0.684211" height="0.684211" transform="matrix(-1 0 0 1 3.52686 1.68359)" fill="black"/>
<rect width="1.02632" height="0.684211" transform="matrix(-1 0 0 1 4.55273 1)" fill="black"/>
<rect width="0.684211" height="3.07895" transform="matrix(-1 0 0 1 4.89551 3.05273)" fill="black"/>
<rect width="0.684211" height="0.684211" transform="matrix(-1 0 0 1 5.57959 2.36719)" fill="black"/>
<rect width="0.684211" height="0.684211" transform="matrix(-1 0 0 1 6.26367 1.68359)" fill="black"/>
<rect width="1.02632" height="0.684211" transform="matrix(-1 0 0 1 7.28955 1)" fill="black"/>
<rect width="1.02632" height="1.02632" transform="matrix(-1 0 0 1 13.7896 9.55273)" fill="black"/>
<rect width="1.36842" height="1.71053" transform="matrix(-1 0 0 1 9.34229 8.52539)" fill="black"/>
<rect width="1.71053" height="2.39474" transform="matrix(-1 0 0 1 7.97412 5.44727)" fill="black"/>
<rect width="0.684211" height="0.684211" transform="matrix(-1 0 0 1 6.94775 9.55273)" fill="black"/>
<rect width="1.71053" height="1.71053" transform="matrix(-1 0 0 1 13.1055 7.1582)" fill="black"/>
<rect width="1.71053" height="1.71053" transform="matrix(-1 0 0 1 11.0527 5.44727)" fill="black"/>
<rect width="2.05263" height="1.36842" transform="matrix(-1 0 0 1 13.1055 3.39258)" fill="black"/>
<rect width="2.39474" height="1.36842" transform="matrix(-1 0 0 1 8.6582 3.39258)" fill="black"/>
<rect width="1.02632" height="1.02632" transform="matrix(-1 0 0 1 10.3687 2.36719)" fill="black"/>
<rect width="2.73684" height="0.684211" transform="matrix(-1 0 0 1 4.21094 8.86719)" fill="white"/>
<rect width="0.684211" height="0.342105" transform="matrix(-1 0 0 1 4.55273 8.52539)" fill="white"/>
<rect width="0.684211" height="0.684211" transform="matrix(-1 0 0 1 12.7637 11.9473)" fill="black"/>
<rect width="0.684211" height="0.684211" transform="matrix(-1 0 0 1 13.4478 12.6328)" fill="black"/>
<rect width="0.684211" height="0.684211" transform="matrix(-1 0 0 1 14.1318 13.3164)" fill="black"/>
<rect width="0.684211" height="0.684211" transform="matrix(-1 0 0 1 11.3955 12.6328)" fill="black"/>
<rect width="0.684211" height="0.684211" transform="matrix(-1 0 0 1 7.28955 11.9473)" fill="black"/>
<rect width="0.684211" height="0.684211" transform="matrix(-1 0 0 1 7.97412 12.6328)" fill="black"/>
<rect width="0.684211" height="0.684211" transform="matrix(-1 0 0 1 8.6582 13.3164)" fill="black"/>
<rect width="0.684211" height="0.684211" transform="matrix(-1 0 0 1 10.0269 11.9473)" fill="black"/>
<rect width="0.684211" height="0.684211" transform="matrix(-1 0 0 1 10.7109 12.6328)" fill="black"/>
<rect width="0.684211" height="0.684211" transform="matrix(-1 0 0 1 4.55273 11.9473)" fill="black"/>
<rect width="0.684211" height="0.684211" transform="matrix(-1 0 0 1 5.2373 12.6328)" fill="black"/>
<rect width="0.684211" height="0.684211" transform="matrix(-1 0 0 1 5.92139 12.6328)" fill="black"/>
</svg>
