<svg width="32" height="18" viewBox="0 0 32 18" fill="none" xmlns="http://www.w3.org/2000/svg">
<rect x="2.03906" y="14.4609" width="6.5" height="3.42105" transform="rotate(-90 2.03906 14.4609)" fill="#25C844"/>
<rect x="2.72314" y="7.96094" width="1.36842" height="2.05263" transform="rotate(-90 2.72314 7.96094)" fill="#25C844"/>
<rect x="3.40674" y="15.8301" width="1.36842" height="1.02632" transform="rotate(-90 3.40674 15.8301)" fill="#25C844"/>
<rect x="4.43457" y="16.5137" width="11.9737" height="7.52632" transform="rotate(-90 4.43457 16.5137)" fill="#25C844"/>
<rect x="11.9604" y="16.8555" width="12.3158" height="0.684211" transform="rotate(-90 11.9604 16.8555)" fill="black"/>
<rect x="11.2769" y="4.53906" width="0.684211" height="0.684211" transform="rotate(-90 11.2769 4.53906)" fill="black"/>
<rect x="10.249" y="3.85547" width="0.684211" height="1.02632" transform="rotate(-90 10.249 3.85547)" fill="black"/>
<rect x="6.83008" y="3.16992" width="0.684211" height="3.42105" transform="rotate(-90 6.83008 3.16992)" fill="black"/>
<rect x="5.80225" y="5.22461" width="1.36842" height="0.684211" transform="rotate(-90 5.80225 5.22461)" fill="black"/>
<rect x="4.43311" y="5.22461" width="0.684211" height="1.36842" transform="rotate(-90 4.43311 5.22461)" fill="black"/>
<rect x="3.74902" y="5.9082" width="0.684211" height="0.684211" transform="rotate(-90 3.74902 5.9082)" fill="black"/>
<rect x="3.06543" y="6.5918" width="0.684211" height="0.684211" transform="rotate(-90 3.06543 6.5918)" fill="black"/>
<rect x="2.38135" y="7.27539" width="0.684211" height="0.684211" transform="rotate(-90 2.38135 7.27539)" fill="black"/>
<rect x="2.03955" y="14.4609" width="7.18421" height="0.684211" transform="rotate(-90 2.03955 14.4609)" fill="black"/>
<rect x="2.72363" y="15.1445" width="0.684211" height="0.684211" transform="rotate(-90 2.72363 15.1445)" fill="black"/>
<rect x="3.40723" y="15.8281" width="0.684211" height="0.684211" transform="rotate(-90 3.40723 15.8281)" fill="black"/>
<rect x="4.09277" y="16.5137" width="0.684211" height="1.71053" transform="rotate(-90 4.09277 16.5137)" fill="black"/>
<rect x="5.80225" y="17.1973" width="0.684211" height="6.15789" transform="rotate(-90 5.80225 17.1973)" fill="black"/>
<rect x="5.80273" y="6.5918" width="3.76316" height="5.47368" transform="rotate(-90 5.80273 6.5918)" fill="black"/>
<rect x="6.48682" y="7.27539" width="3.76316" height="4.10526" transform="rotate(-90 6.48682 7.27539)" fill="black"/>
<rect x="6.48682" y="5.56445" width="3.76316" height="4.10526" transform="rotate(-90 6.48682 5.56445)" fill="black"/>
<rect x="7.17139" y="6.25" width="1.36842" height="1.36842" transform="rotate(-90 7.17139 6.25)" fill="white"/>
<rect x="7.17139" y="4.19727" width="1.36842" height="1.36842" transform="rotate(-90 7.17139 4.19727)" fill="white"/>
<rect x="7.17139" y="5.56641" width="0.684211" height="0.684211" transform="rotate(-90 7.17139 5.56641)" fill="#007AE0"/>
<rect x="7.17139" y="3.51367" width="0.684211" height="0.684211" transform="rotate(-90 7.17139 3.51367)" fill="#007AE0"/>
<rect x="3.75049" y="3.85547" width="0.684211" height="3.07895" transform="rotate(-90 3.75049 3.85547)" fill="black"/>
<rect x="3.06494" y="4.53906" width="0.684211" height="0.684211" transform="rotate(-90 3.06494 4.53906)" fill="black"/>
<rect x="2.38135" y="5.22461" width="0.684211" height="0.684211" transform="rotate(-90 2.38135 5.22461)" fill="black"/>
<rect x="1.69727" y="6.25" width="1.02632" height="0.684211" transform="rotate(-90 1.69727 6.25)" fill="black"/>
<rect x="3.75049" y="6.5918" width="0.684211" height="3.07895" transform="rotate(-90 3.75049 6.5918)" fill="black"/>
<rect x="3.06494" y="7.27734" width="0.684211" height="0.684211" transform="rotate(-90 3.06494 7.27734)" fill="black"/>
<rect x="2.38135" y="7.96094" width="0.684211" height="0.684211" transform="rotate(-90 2.38135 7.96094)" fill="black"/>
<rect x="1.69727" y="8.98633" width="1.02632" height="0.684211" transform="rotate(-90 1.69727 8.98633)" fill="black"/>
<rect x="10.2505" y="15.4863" width="1.02632" height="1.02632" transform="rotate(-90 10.2505 15.4863)" fill="black"/>
<rect x="9.22314" y="11.0391" width="1.36842" height="1.71053" transform="rotate(-90 9.22314 11.0391)" fill="black"/>
<rect x="6.14404" y="9.67188" width="1.71053" height="2.39474" transform="rotate(-90 6.14404 9.67188)" fill="black"/>
<rect x="10.2505" y="8.64453" width="0.684211" height="0.684211" transform="rotate(-90 10.2505 8.64453)" fill="black"/>
<rect x="7.85547" y="14.8027" width="1.71053" height="1.71053" transform="rotate(-90 7.85547 14.8027)" fill="black"/>
<rect x="6.14404" y="12.75" width="1.71053" height="1.71053" transform="rotate(-90 6.14404 12.75)" fill="black"/>
<rect x="4.09082" y="14.8027" width="2.05263" height="1.36842" transform="rotate(-90 4.09082 14.8027)" fill="black"/>
<rect x="4.09082" y="10.3555" width="2.39474" height="1.36842" transform="rotate(-90 4.09082 10.3555)" fill="black"/>
<rect x="3.06494" y="12.0664" width="1.02632" height="1.02632" transform="rotate(-90 3.06494 12.0664)" fill="black"/>
<rect x="9.56494" y="5.9082" width="2.73684" height="0.684211" transform="rotate(-90 9.56494 5.9082)" fill="white"/>
<rect x="9.22314" y="6.25" width="0.684211" height="0.342105" transform="rotate(-90 9.22314 6.25)" fill="white"/>
<rect x="12.644" y="14.4609" width="0.684211" height="0.684211" transform="rotate(-90 12.644 14.4609)" fill="black"/>
<rect x="13.3296" y="15.1445" width="0.684211" height="0.684211" transform="rotate(-90 13.3296 15.1445)" fill="black"/>
<rect x="14.0132" y="15.8301" width="0.684211" height="0.684211" transform="rotate(-90 14.0132 15.8301)" fill="black"/>
<rect x="13.3296" y="13.0918" width="0.684211" height="0.684211" transform="rotate(-90 13.3296 13.0918)" fill="black"/>
<rect x="12.644" y="8.98633" width="0.684211" height="0.684211" transform="rotate(-90 12.644 8.98633)" fill="black"/>
<rect x="13.3296" y="9.67188" width="0.684211" height="0.684211" transform="rotate(-90 13.3296 9.67188)" fill="black"/>
<rect x="14.0132" y="10.3555" width="0.684211" height="0.684211" transform="rotate(-90 14.0132 10.3555)" fill="black"/>
<rect x="12.644" y="11.7246" width="0.684211" height="0.684211" transform="rotate(-90 12.644 11.7246)" fill="black"/>
<rect x="13.3296" y="12.4082" width="0.684211" height="0.684211" transform="rotate(-90 13.3296 12.4082)" fill="black"/>
<rect x="12.644" y="6.25" width="0.684211" height="0.684211" transform="rotate(-90 12.644 6.25)" fill="black"/>
<rect x="13.3296" y="6.93359" width="0.684211" height="0.684211" transform="rotate(-90 13.3296 6.93359)" fill="black"/>
<rect x="13.3296" y="7.61914" width="0.684211" height="0.684211" transform="rotate(-90 13.3296 7.61914)" fill="black"/>
<rect x="17.0391" y="13.4609" width="6.5" height="3.42105" transform="rotate(-90 17.0391 13.4609)" fill="#25C844"/>
<rect x="17.7231" y="6.96094" width="1.36842" height="2.05263" transform="rotate(-90 17.7231 6.96094)" fill="#25C844"/>
<rect x="18.4067" y="14.8301" width="1.36842" height="1.02632" transform="rotate(-90 18.4067 14.8301)" fill="#25C844"/>
<rect x="19.4346" y="15.5137" width="11.9737" height="7.52632" transform="rotate(-90 19.4346 15.5137)" fill="#25C844"/>
<rect x="26.9604" y="15.8555" width="12.3158" height="0.684211" transform="rotate(-90 26.9604 15.8555)" fill="black"/>
<rect x="26.2769" y="3.53906" width="0.684211" height="0.684211" transform="rotate(-90 26.2769 3.53906)" fill="black"/>
<rect x="25.249" y="2.85547" width="0.684211" height="1.02632" transform="rotate(-90 25.249 2.85547)" fill="black"/>
<rect x="21.8301" y="2.16992" width="0.684211" height="3.42105" transform="rotate(-90 21.8301 2.16992)" fill="black"/>
<rect x="20.8022" y="4.22461" width="1.36842" height="0.684211" transform="rotate(-90 20.8022 4.22461)" fill="black"/>
<rect x="19.4331" y="4.22461" width="0.684211" height="1.36842" transform="rotate(-90 19.4331 4.22461)" fill="black"/>
<rect x="18.749" y="4.9082" width="0.684211" height="0.684211" transform="rotate(-90 18.749 4.9082)" fill="black"/>
<rect x="18.0654" y="5.5918" width="0.684211" height="0.684211" transform="rotate(-90 18.0654 5.5918)" fill="black"/>
<rect x="17.3813" y="6.27539" width="0.684211" height="0.684211" transform="rotate(-90 17.3813 6.27539)" fill="black"/>
<rect x="17.0396" y="13.4609" width="7.18421" height="0.684211" transform="rotate(-90 17.0396 13.4609)" fill="black"/>
<rect x="17.7236" y="14.1445" width="0.684211" height="0.684211" transform="rotate(-90 17.7236 14.1445)" fill="black"/>
<rect x="18.4072" y="14.8281" width="0.684211" height="0.684211" transform="rotate(-90 18.4072 14.8281)" fill="black"/>
<rect x="19.0928" y="15.5137" width="0.684211" height="1.71053" transform="rotate(-90 19.0928 15.5137)" fill="black"/>
<rect x="20.8022" y="16.1973" width="0.684211" height="6.15789" transform="rotate(-90 20.8022 16.1973)" fill="black"/>
<rect x="20.8027" y="5.5918" width="3.76316" height="5.47368" transform="rotate(-90 20.8027 5.5918)" fill="black"/>
<rect x="21.4868" y="6.27539" width="3.76316" height="4.10526" transform="rotate(-90 21.4868 6.27539)" fill="black"/>
<rect x="21.4868" y="4.56445" width="3.76316" height="4.10526" transform="rotate(-90 21.4868 4.56445)" fill="black"/>
<rect x="22.1714" y="5.25" width="1.36842" height="1.36842" transform="rotate(-90 22.1714 5.25)" fill="white"/>
<rect x="22.1714" y="3.19727" width="1.36842" height="1.36842" transform="rotate(-90 22.1714 3.19727)" fill="white"/>
<rect x="22.1714" y="4.56641" width="0.684211" height="0.684211" transform="rotate(-90 22.1714 4.56641)" fill="#007AE0"/>
<rect x="22.1714" y="2.51367" width="0.684211" height="0.684211" transform="rotate(-90 22.1714 2.51367)" fill="#007AE0"/>
<rect x="18.7505" y="2.85547" width="0.684211" height="3.07895" transform="rotate(-90 18.7505 2.85547)" fill="black"/>
<rect x="18.0649" y="3.53906" width="0.684211" height="0.684211" transform="rotate(-90 18.0649 3.53906)" fill="black"/>
<rect x="17.3813" y="4.22461" width="0.684211" height="0.684211" transform="rotate(-90 17.3813 4.22461)" fill="black"/>
<rect x="16.6973" y="5.25" width="1.02632" height="0.684211" transform="rotate(-90 16.6973 5.25)" fill="black"/>
<rect x="18.7505" y="5.5918" width="0.684211" height="3.07895" transform="rotate(-90 18.7505 5.5918)" fill="black"/>
<rect x="18.0649" y="6.27734" width="0.684211" height="0.684211" transform="rotate(-90 18.0649 6.27734)" fill="black"/>
<rect x="17.3813" y="6.96094" width="0.684211" height="0.684211" transform="rotate(-90 17.3813 6.96094)" fill="black"/>
<rect x="16.6973" y="7.98633" width="1.02632" height="0.684211" transform="rotate(-90 16.6973 7.98633)" fill="black"/>
<rect x="25.2505" y="14.4863" width="1.02632" height="1.02632" transform="rotate(-90 25.2505 14.4863)" fill="black"/>
<rect x="24.2231" y="10.0391" width="1.36842" height="1.71053" transform="rotate(-90 24.2231 10.0391)" fill="black"/>
<rect x="21.144" y="8.67188" width="1.71053" height="2.39474" transform="rotate(-90 21.144 8.67188)" fill="black"/>
<rect x="25.2505" y="7.64453" width="0.684211" height="0.684211" transform="rotate(-90 25.2505 7.64453)" fill="black"/>
<rect x="22.8555" y="13.8027" width="1.71053" height="1.71053" transform="rotate(-90 22.8555 13.8027)" fill="black"/>
<rect x="21.144" y="11.75" width="1.71053" height="1.71053" transform="rotate(-90 21.144 11.75)" fill="black"/>
<rect x="19.0908" y="13.8027" width="2.05263" height="1.36842" transform="rotate(-90 19.0908 13.8027)" fill="black"/>
<rect x="19.0908" y="9.35547" width="2.39474" height="1.36842" transform="rotate(-90 19.0908 9.35547)" fill="black"/>
<rect x="18.0649" y="11.0664" width="1.02632" height="1.02632" transform="rotate(-90 18.0649 11.0664)" fill="black"/>
<rect x="24.5649" y="4.9082" width="2.73684" height="0.684211" transform="rotate(-90 24.5649 4.9082)" fill="white"/>
<rect x="24.2231" y="5.25" width="0.684211" height="0.342105" transform="rotate(-90 24.2231 5.25)" fill="white"/>
<rect x="27.644" y="13.4609" width="0.684211" height="0.684211" transform="rotate(-90 27.644 13.4609)" fill="black"/>
<rect x="28.3296" y="14.1445" width="0.684211" height="0.684211" transform="rotate(-90 28.3296 14.1445)" fill="black"/>
<rect x="29.0132" y="14.8301" width="0.684211" height="0.684211" transform="rotate(-90 29.0132 14.8301)" fill="black"/>
<rect x="28.3296" y="12.0918" width="0.684211" height="0.684211" transform="rotate(-90 28.3296 12.0918)" fill="black"/>
<rect x="27.644" y="7.98633" width="0.684211" height="0.684211" transform="rotate(-90 27.644 7.98633)" fill="black"/>
<rect x="28.3296" y="8.67188" width="0.684211" height="0.684211" transform="rotate(-90 28.3296 8.67188)" fill="black"/>
<rect x="29.0132" y="9.35547" width="0.684211" height="0.684211" transform="rotate(-90 29.0132 9.35547)" fill="black"/>
<rect x="27.644" y="10.7246" width="0.684211" height="0.684211" transform="rotate(-90 27.644 10.7246)" fill="black"/>
<rect x="28.3296" y="11.4082" width="0.684211" height="0.684211" transform="rotate(-90 28.3296 11.4082)" fill="black"/>
<rect x="27.644" y="5.25" width="0.684211" height="0.684211" transform="rotate(-90 27.644 5.25)" fill="black"/>
<rect x="28.3296" y="5.93359" width="0.684211" height="0.684211" transform="rotate(-90 28.3296 5.93359)" fill="black"/>
<rect x="28.3296" y="6.61914" width="0.684211" height="0.684211" transform="rotate(-90 28.3296 6.61914)" fill="black"/>
</svg>
